<svg version="1.1" id="Layer_1" xmlns="http://www.w3.org/2000/svg" xmlns:xlink="http://www.w3.org/1999/xlink" x="0px" y="0px"
	 width="100%" viewBox="0 0 1254 706" enable-background="new 0 0 1254 706" xml:space="preserve">
<path fill="#FEFEFE" opacity="1.000000" stroke="none" 
	d="
M917.000000,707.000000 
	C611.372192,707.000000 306.244446,707.000000 1.058333,707.000000 
	C1.058333,471.735565 1.058333,236.471100 1.058333,1.103318 
	C418.877838,1.103318 836.755676,1.103318 1254.816772,1.103318 
	C1254.816772,236.333221 1254.816772,471.666595 1254.816772,707.000000 
	C1142.470947,707.000000 1029.985474,707.000000 917.000000,707.000000 
M222.446259,310.355774 
	C222.446259,310.355774 222.319733,310.499146 221.850311,310.842682 
	C221.061630,311.700287 220.272934,312.557892 219.758682,313.652527 
	C219.758682,313.652527 219.447281,313.466736 218.881927,313.791656 
	C212.525452,316.971680 206.168961,320.151672 198.895279,323.324707 
	C190.376648,324.945312 182.093826,324.180115 173.664307,320.339020 
	C171.041183,318.255249 168.418060,316.171478 165.587479,313.407440 
	C164.290085,309.008606 161.956421,304.614502 161.936295,300.209839 
	C161.905487,293.472504 163.470642,286.727936 164.735260,279.436279 
	C165.875595,273.623383 167.015915,267.810486 168.574982,261.363861 
	C170.570297,251.848450 172.565613,242.333023 174.844803,232.186340 
	C175.934036,225.210815 177.023270,218.235291 178.834869,211.018250 
	C180.789658,202.350784 182.744446,193.683319 185.000900,184.274582 
	C186.601395,176.976517 188.110519,169.656738 189.837921,162.388840 
	C190.814835,158.278580 189.236740,157.057404 185.276733,157.091278 
	C171.480103,157.209244 157.681198,157.059509 143.884369,157.165863 
	C142.204910,157.178802 140.532715,158.129807 138.170212,158.969513 
	C136.417206,166.642792 134.664200,174.316055 132.587540,182.650070 
	C132.474747,183.371048 132.361938,184.092026 131.950470,185.295990 
	C131.939011,185.854111 131.927567,186.412231 131.560059,187.637543 
	C130.001785,195.743027 128.443527,203.848495 126.509216,212.613297 
	C124.879486,220.681335 123.249756,228.749359 121.081367,237.385406 
	C119.254158,246.863174 117.426949,256.340942 115.076225,266.384521 
	C114.027374,272.578796 112.978523,278.773041 111.477585,285.602325 
	C110.595032,291.319489 109.332138,297.007751 108.895409,302.758759 
	C106.949501,328.383301 119.240028,349.475281 141.688156,359.133698 
	C157.141113,365.782379 173.331589,367.734406 190.902786,366.168793 
	C204.076538,365.083282 217.001999,362.967957 229.718643,356.946991 
	C241.227524,351.827240 251.449554,344.901672 260.436096,335.178284 
	C264.836334,329.185120 269.236542,323.191956 274.101562,316.746735 
	C277.908020,307.215485 281.714508,297.684265 286.107574,287.795685 
	C292.543213,283.252197 299.060577,283.656555 304.398376,289.197937 
	C308.392273,293.344147 312.139587,297.727905 316.386688,302.550507 
	C319.229340,305.444519 322.071991,308.338531 325.128662,311.858215 
	C330.260620,317.957642 335.392548,324.057098 340.823639,330.787231 
	C355.440491,347.866180 370.111694,364.899048 384.649414,382.045074 
	C391.138031,389.697845 391.103882,396.981934 384.042969,404.251373 
	C377.688110,410.793945 370.679077,416.701111 363.301971,423.079742 
	C360.835571,424.947266 358.369171,426.814789 355.223755,428.887512 
	C346.302551,434.187164 337.381348,439.486847 327.771820,444.860260 
	C293.259094,462.022003 257.027008,473.826294 218.842102,479.283051 
	C177.917023,485.131348 137.559052,484.989594 98.754509,466.024994 
	C95.836494,464.366577 92.918480,462.708191 89.642136,460.560883 
	C88.803413,460.024689 87.964691,459.488464 86.769073,458.380310 
	C64.935585,442.093536 56.029770,420.225128 58.913803,393.385681 
	C60.493282,378.686646 64.794861,364.740051 71.236938,351.443268 
	C73.296516,347.192200 75.304253,342.916077 77.516663,338.271484 
	C76.495514,338.451935 76.065567,338.398163 75.940567,338.568359 
	C58.290428,362.600098 43.933632,388.150513 41.532600,418.628662 
	C40.057747,437.350220 44.671021,454.588654 57.076283,469.971680 
	C59.944801,472.872253 62.813320,475.772827 66.015991,479.200653 
	C68.992668,481.501678 71.969353,483.802704 75.213715,486.738800 
	C76.778725,487.642700 78.343155,488.547577 79.908859,489.450256 
	C103.020493,502.775299 128.346481,507.747955 154.589951,508.743652 
	C195.981644,510.314117 236.182037,503.217041 275.663849,491.305786 
	C299.138336,484.223816 321.928070,475.454559 344.132904,463.833496 
	C344.424500,463.624603 344.716095,463.415680 345.732330,463.095581 
	C349.856659,460.840546 353.980988,458.585510 358.780396,456.181854 
	C360.546814,454.867401 362.313232,453.552948 364.841431,452.213104 
	C377.065277,444.195709 389.289154,436.178314 402.121429,427.947052 
	C418.252899,415.513824 433.012543,401.753662 444.074402,384.436981 
	C448.006653,378.281342 448.741211,371.594269 444.386871,365.734009 
	C438.470703,357.771790 431.631775,350.495178 424.998566,342.367828 
	C424.665131,342.222626 424.331696,342.077454 423.542084,341.440277 
	C417.839966,334.496368 412.137848,327.552460 406.138611,320.726715 
	C406.138611,320.726715 406.452271,320.664551 406.256134,320.122955 
	C405.840332,319.746338 405.424500,319.369720 404.803802,318.351898 
	C392.299957,303.699677 379.796112,289.047455 367.030975,273.792755 
	C366.371643,273.053589 365.767578,272.254578 365.043518,271.585449 
	C361.725159,268.519073 362.002716,265.837494 365.466736,262.952179 
	C368.698364,260.260468 371.597992,257.170105 375.212036,253.997192 
	C380.865845,248.692947 386.519684,243.388718 392.789795,237.847351 
	C401.571594,229.587234 410.353394,221.327133 419.745026,212.801697 
	C434.421051,199.151871 449.097046,185.502029 464.762512,170.931931 
	C461.719635,170.931931 460.113434,170.931213 458.507233,170.932037 
	C438.678741,170.942307 418.834991,171.419495 399.027954,170.772552 
	C388.634857,170.433075 381.022400,174.073242 374.310638,182.234573 
	C367.163605,189.013290 360.016571,195.792007 352.197937,202.792694 
	C343.699310,210.821625 335.200653,218.850555 326.111542,227.157135 
	C318.622284,234.147873 311.133026,241.138611 302.930786,248.342621 
	C300.733154,248.473465 298.535522,248.604309 296.337891,248.735153 
	C296.235107,246.591095 295.906738,244.427689 296.088531,242.308044 
	C296.299927,239.843201 296.958344,237.416687 297.805573,234.369736 
	C299.224884,227.913803 300.644196,221.457855 302.408661,214.313065 
	C302.493805,213.555420 302.578979,212.797775 302.823151,211.670441 
	C302.823151,211.670441 302.798889,211.268738 303.172424,210.667282 
	C304.785736,203.449341 306.399048,196.231400 308.399475,188.371506 
	C310.700928,178.131500 313.002380,167.891510 315.421204,157.129349 
	C298.684021,157.129349 282.799438,157.087402 266.916046,157.206772 
	C265.606476,157.216614 264.305084,158.321228 262.324738,159.223358 
	C260.155396,168.464569 257.986084,177.705765 255.398804,187.556274 
	C253.604996,196.037704 251.811172,204.519135 249.618225,213.618439 
	C249.379562,215.066406 249.140900,216.514389 248.507385,218.361679 
	C248.444611,218.906662 248.381821,219.451630 248.051422,220.630707 
	C248.029007,221.085114 248.006607,221.539505 247.632980,222.412247 
	C247.567642,222.941010 247.502304,223.469788 247.153015,224.633667 
	C247.137558,225.093887 247.122101,225.554092 246.842545,226.482788 
	C246.853806,226.661697 246.865082,226.840591 246.563080,227.366226 
	C246.563080,227.366226 246.588120,227.832855 246.220535,228.466568 
	C245.115799,233.976334 244.011063,239.486084 242.457626,245.617111 
	C241.303345,251.410355 240.149063,257.203583 238.580566,263.630157 
	C236.752304,272.424683 234.924057,281.219238 232.654572,290.612122 
	C229.387238,297.067780 226.119888,303.523438 222.670547,310.048126 
	C222.670547,310.048126 222.582657,310.221832 222.446259,310.355774 
M147.429214,456.537750 
	C147.429214,456.537750 147.575760,456.598022 148.095123,457.032227 
	C152.632599,457.902069 157.160950,459.463776 161.709091,459.523621 
	C182.998108,459.803894 204.292603,459.686127 225.585098,459.665802 
	C228.392624,459.663116 231.199905,459.403076 234.682541,459.538513 
	C236.121674,459.366150 237.560806,459.193817 239.677368,459.200439 
	C248.483200,457.541077 257.289032,455.881714 266.595337,454.304291 
	C266.730225,454.202423 266.865112,454.100525 267.654602,454.076447 
	C268.458252,453.770294 269.261902,453.464111 270.578644,453.236694 
	C270.719055,453.135590 270.859497,453.034515 271.734344,452.993500 
	C273.523987,452.411011 275.313629,451.828522 277.601898,451.331177 
	C277.733978,451.226410 277.866058,451.121613 278.725098,451.062134 
	C280.508087,450.434784 282.291077,449.807404 284.588379,449.240753 
	C284.725494,449.135864 284.862579,449.030945 285.578674,448.989746 
	C286.077545,448.720276 286.576385,448.450806 287.592407,448.226501 
	C287.728119,448.119171 287.863861,448.011810 288.577423,447.958405 
	C289.073853,447.692596 289.570282,447.426788 290.525604,447.241791 
	C290.855774,447.191833 291.107635,447.024231 291.736664,446.744476 
	C291.736664,446.744476 292.044342,446.408569 292.616364,446.418701 
	C293.121460,446.166229 293.626556,445.913757 294.664459,445.654724 
	C294.786133,445.525330 294.907776,445.395935 295.577911,445.284058 
	C295.718567,445.167114 295.859192,445.050171 296.580017,444.970306 
	C297.069824,444.687103 297.559631,444.403900 298.804291,444.092712 
	C315.359039,435.593109 331.961090,427.182953 348.410736,418.484558 
	C350.546692,417.355072 352.913574,414.977142 353.430664,412.769318 
	C355.439880,404.190796 357.255859,395.503204 358.209778,386.754333 
	C360.357971,367.052948 346.041901,350.968842 326.287476,350.748230 
	C305.971863,350.521332 285.651215,350.658844 265.333984,350.806091 
	C263.354889,350.820404 260.998840,351.536713 259.467804,352.748505 
	C237.160568,370.403656 211.534470,378.138031 183.408356,378.610901 
	C167.864639,378.872192 152.751755,376.366486 137.623596,371.115936 
	C134.278122,388.528595 130.357422,405.412323 127.947945,422.509033 
	C125.727425,438.264984 133.592758,450.945618 147.105209,456.442505 
	C147.105209,456.442505 147.284164,456.474030 147.429214,456.537750 
M985.313293,331.081451 
	C981.545715,338.722748 977.778137,346.364044 973.616150,354.629059 
	C973.156250,356.216095 972.619019,357.785309 972.248840,359.393036 
	C969.210693,372.588257 967.639771,385.792603 972.165710,399.560089 
	C972.427307,400.044067 972.688843,400.528046 972.947144,401.754486 
	C982.953369,430.686279 1018.830322,430.994720 1034.836914,420.900635 
	C1035.648315,420.388885 1036.271484,419.578430 1037.666260,418.911163 
	C1040.298096,416.730865 1042.929932,414.550537 1046.011475,411.997650 
	C1045.582764,416.283813 1045.213379,419.976257 1044.788574,424.222595 
	C1051.270630,424.222595 1057.349854,424.212372 1063.428955,424.225067 
	C1071.666748,424.242279 1071.666748,424.249817 1072.970947,415.252563 
	C1074.885498,404.171875 1076.800049,393.091187 1078.991577,381.232849 
	C1080.716309,371.486481 1082.441162,361.740112 1084.511108,351.413879 
	C1084.544800,350.972168 1084.578491,350.530426 1084.790161,349.665619 
	C1084.790161,349.665619 1084.750977,349.208313 1085.041016,348.540344 
	C1087.292114,335.994446 1089.543335,323.448517 1091.866943,310.498688 
	C1082.420898,310.498688 1073.396606,310.498688 1064.296753,310.498688 
	C1063.459351,314.709412 1062.684082,318.607574 1061.798828,323.058502 
	C1047.157715,302.561890 1020.611267,305.365936 1004.215820,314.060638 
	C998.107300,319.605255 991.998779,325.149872 985.313293,331.081451 
M1137.604614,449.764435 
	C1137.912354,449.208374 1138.220093,448.652344 1139.041504,447.716553 
	C1142.057373,442.474243 1145.073242,437.231903 1148.598022,431.561066 
	C1153.943481,421.772461 1159.288940,411.983856 1165.117432,401.785583 
	C1169.761475,393.189636 1174.405640,384.593658 1179.577393,375.573395 
	C1185.589233,364.452850 1191.601074,353.332275 1198.064331,341.780396 
	C1203.645020,331.532654 1209.225708,321.284912 1215.288086,310.152710 
	C1205.339600,310.152710 1196.431763,310.072479 1187.529053,310.249054 
	C1186.347290,310.272522 1184.681641,311.322662 1184.108276,312.371796 
	C1180.937622,318.172882 1178.036255,324.121124 1174.554321,330.503174 
	C1169.030029,341.331879 1163.505615,352.160553 1157.476318,363.444031 
	C1153.529053,370.905609 1149.581787,378.367188 1145.104004,386.831604 
	C1143.303711,377.156647 1141.707275,368.577148 1140.211182,359.176941 
	C1139.993652,358.106842 1139.776123,357.036774 1139.661621,355.364594 
	C1139.209473,354.536316 1138.757446,353.708038 1138.214966,352.110260 
	C1137.806396,347.832794 1137.603394,343.523254 1136.943237,339.284973 
	C1135.816528,332.052429 1134.315796,324.878845 1133.133911,317.654053 
	C1131.915527,310.207245 1132.000122,310.191559 1124.459839,310.189087 
	C1117.072510,310.186646 1109.685181,310.188538 1101.546265,310.188538 
	C1104.668335,324.497681 1107.568481,337.789337 1110.497192,351.943054 
	C1112.653809,361.964325 1114.810425,371.985596 1116.937988,382.702911 
	C1117.216675,383.034149 1117.495361,383.365387 1117.413574,383.730713 
	C1117.413574,383.730713 1117.372070,384.090302 1117.351562,384.971924 
	C1119.533203,394.991547 1121.714722,405.011139 1123.841309,415.673737 
	C1125.106812,419.886993 1124.349365,423.719147 1121.938110,427.385925 
	C1119.843262,430.571686 1117.996460,433.920502 1115.462769,437.521576 
	C1107.410767,446.098541 1096.925293,443.769012 1086.770996,443.366516 
	C1085.230957,451.580200 1083.776245,459.338501 1082.105713,468.247650 
	C1090.699097,468.247650 1098.659424,468.788025 1106.518311,468.125488 
	C1119.429810,467.036957 1129.794922,460.996765 1137.044556,450.050049 
	C1137.044556,450.050049 1137.060059,450.097534 1137.604614,449.764435 
M970.379028,332.456787 
	C971.577820,327.300995 972.776611,322.145203 974.436890,316.421997 
	C974.776489,316.067841 975.354797,315.753357 975.421143,315.353790 
	C977.703796,301.613220 976.354980,288.468750 967.461121,277.209778 
	C957.222046,264.247894 942.630981,260.415436 927.049622,260.080536 
	C907.093506,259.651642 887.120117,260.076599 867.158630,259.804871 
	C862.338928,259.739288 860.370667,261.257965 860.642273,266.706024 
	C859.009094,276.432770 857.375977,286.159546 855.322754,296.533051 
	C853.156982,309.658722 850.991211,322.784363 848.402527,336.549316 
	C847.274963,343.366791 846.147339,350.184296 844.664062,357.696777 
	C842.436279,370.460297 840.208435,383.223816 837.588623,396.651581 
	C835.903625,405.857422 834.218567,415.063263 832.472412,424.603027 
	C842.318481,424.603027 851.423828,424.717590 860.518372,424.457428 
	C861.650452,424.425018 863.475830,422.545258 863.710266,421.285217 
	C865.892639,409.557159 867.796936,397.777374 870.050171,385.248230 
	C871.088440,379.180267 872.126709,373.112274 874.064392,366.845673 
	C889.866394,366.577362 905.704102,366.867523 921.458618,365.858032 
	C933.328003,365.097504 944.626953,361.483490 954.496887,353.164703 
	C961.255981,347.687195 966.941833,341.390228 970.379028,332.456787 
M489.671234,149.978195 
	C492.444916,151.103729 495.297272,152.068558 497.979431,153.381104 
	C514.418579,161.425598 522.705017,174.645111 522.535950,192.953033 
	C522.400696,207.595200 517.649109,221.111710 511.598541,234.189178 
	C497.695282,264.239136 478.193024,290.565277 456.913391,315.678436 
	C452.162476,321.285248 447.281952,326.782288 442.461060,332.329834 
	C442.844574,332.821655 443.228088,333.313477 443.611603,333.805328 
	C446.805115,331.678497 450.382751,329.958435 453.132507,327.361694 
	C479.407013,302.549408 502.940887,275.406677 521.735535,244.430252 
	C531.815369,227.817169 539.901245,210.319550 542.390747,190.711914 
	C544.828613,171.511078 537.133728,155.214539 520.813232,145.990311 
	C507.222992,138.309189 492.350922,136.212219 476.102661,136.379440 
	C465.299286,137.340179 454.372833,137.593521 443.724731,139.446533 
	C431.316406,141.605820 419.106445,144.991791 406.899750,148.186813 
	C400.641022,149.824982 394.576904,152.206741 388.424835,154.252457 
	C388.507202,154.675385 388.589569,155.098297 388.671936,155.521210 
	C421.813385,147.755005 455.036072,141.554016 489.671234,149.978195 
M776.244446,323.746246 
	C796.936646,302.219849 817.628845,280.693481 837.558044,259.960846 
	C827.158081,259.960846 814.873596,259.873291 802.593628,260.071899 
	C801.063354,260.096649 799.267334,261.344666 798.084229,262.519257 
	C781.531616,278.952637 765.007202,295.415405 748.605164,311.998810 
	C742.306702,318.366852 736.334351,325.057434 730.213440,331.601044 
	C729.736572,331.229095 729.259705,330.857147 728.782837,330.485199 
	C732.935303,307.149689 737.087769,283.814209 741.283569,260.235046 
	C730.256714,260.235046 720.012085,260.235046 709.670349,260.235046 
	C699.893433,315.034882 690.166809,369.552704 680.333862,424.666382 
	C689.848816,424.666382 698.808350,424.511780 707.757568,424.746887 
	C711.068481,424.833893 711.857666,423.544403 712.361450,420.552307 
	C714.739563,406.428802 717.390259,392.351044 719.981018,378.263794 
	C720.216309,376.984314 720.331787,375.353241 721.153992,374.563232 
	C727.917175,368.065552 734.834534,361.728424 742.088684,354.986023 
	C752.191833,374.412415 762.598022,392.857452 771.422485,412.030487 
	C776.032043,422.045746 781.654602,426.377686 792.744446,424.885345 
	C800.494873,423.842377 808.498962,424.684204 817.048828,424.684204 
	C808.288269,408.638123 800.023621,393.469086 791.728943,378.316467 
	C783.445984,363.185150 775.132935,348.070343 767.027466,333.302429 
	C770.198364,330.004700 772.968567,327.123627 776.244446,323.746246 
M645.825378,300.174744 
	C645.556091,301.647339 645.283813,303.119354 645.017944,304.592590 
	C641.354919,324.890961 638.121216,345.279236 633.890991,365.458679 
	C630.677551,380.787903 622.632019,392.771179 606.526855,397.500275 
	C597.325867,400.201965 588.065491,400.119995 578.893555,397.727386 
	C568.551880,395.029572 561.897827,388.361145 560.804993,377.582764 
	C560.158936,371.211060 560.356689,364.573730 561.370605,358.247498 
	C564.426453,339.181305 568.092468,320.213318 571.472412,301.198517 
	C573.880615,287.650421 576.211243,274.088623 578.635803,260.193298 
	C567.817139,260.193298 557.546509,260.193298 547.054749,260.193298 
	C546.735046,261.483124 546.340454,262.739044 546.117493,264.024750 
	C542.048950,287.488037 537.841492,310.928894 534.007935,334.430664 
	C531.679077,348.708069 528.809143,363.031525 528.179565,377.421692 
	C527.122742,401.580017 541.785278,419.585175 565.278992,425.222717 
	C581.447144,429.102448 597.698792,428.986786 613.784363,425.019470 
	C633.689697,420.110168 648.487854,408.372437 657.235657,389.774292 
	C660.605835,382.609131 663.477356,374.960693 665.004517,367.222290 
	C670.415527,339.803009 675.155396,312.251190 680.132812,284.746521 
	C681.596985,276.655853 683.005188,268.555054 684.476318,260.248657 
	C673.473206,260.248657 663.248474,260.248657 652.856567,260.248657 
	C650.522522,273.462646 648.239197,286.389465 645.825378,300.174744 
z"/>
<path fill="#0A123D" opacity="1.000000" stroke="none" 
	d="
M146.981781,456.309174 
	C133.592758,450.945618 125.727425,438.264984 127.947945,422.509033 
	C130.357422,405.412323 134.278122,388.528595 137.623596,371.115936 
	C152.751755,376.366486 167.864639,378.872192 183.408356,378.610901 
	C211.534470,378.138031 237.160568,370.403656 259.467804,352.748505 
	C260.998840,351.536713 263.354889,350.820404 265.333984,350.806091 
	C285.651215,350.658844 305.971863,350.521332 326.287476,350.748230 
	C346.041901,350.968842 360.357971,367.052948 358.209778,386.754333 
	C357.255859,395.503204 355.439880,404.190796 353.430664,412.769318 
	C352.913574,414.977142 350.546692,417.355072 348.410736,418.484558 
	C331.961090,427.182953 315.359039,435.593109 298.268921,443.863770 
	C297.155670,444.067627 296.577759,444.500427 295.999847,444.933228 
	C295.859192,445.050171 295.718567,445.167114 295.183838,445.068329 
	C294.570404,445.122162 294.351044,445.391754 294.131683,445.661316 
	C293.626556,445.913757 293.121460,446.166229 292.228333,446.196472 
	C291.653961,446.229187 291.467590,446.484100 291.281189,446.738983 
	C291.107635,447.024231 290.855774,447.191833 290.142639,446.954163 
	C289.173004,447.079132 288.586273,447.491791 287.999573,447.904419 
	C287.863861,448.011810 287.728119,448.119171 287.180237,447.953674 
	C286.178619,448.095947 285.589142,448.510986 284.999664,448.926056 
	C284.862579,449.030945 284.725494,449.135864 284.145264,448.939056 
	C281.800842,449.430511 279.899506,450.223663 277.998169,451.016846 
	C277.866058,451.121613 277.733978,451.226410 277.160217,451.003662 
	C274.812317,451.428558 272.906128,452.181000 270.999939,452.933411 
	C270.859497,453.034515 270.719055,453.135590 270.134186,452.921692 
	C268.793152,453.070679 267.896576,453.534637 267.000000,453.998596 
	C266.865112,454.100525 266.730225,454.202423 266.129272,453.961121 
	C264.887115,453.531647 264.082642,453.267731 263.339386,453.386658 
	C255.988663,454.562531 248.638596,455.750214 241.317261,457.092255 
	C240.455887,457.250153 239.768158,458.355347 238.999939,459.021484 
	C237.560806,459.193817 236.121674,459.366150 234.158478,459.081940 
	C232.526505,458.417328 231.418854,458.029419 230.310623,458.027740 
	C207.028793,457.992920 183.746490,458.071930 160.465363,457.938660 
	C156.166397,457.914062 151.872177,457.066010 147.575760,456.598022 
	C147.575760,456.598022 147.429214,456.537750 147.485168,456.336456 
	C147.354691,456.193146 147.168228,456.251160 146.981781,456.309174 
M291.756561,404.940979 
	C300.062042,404.936523 308.368622,405.013489 316.672668,404.901978 
	C323.373260,404.812012 327.920685,400.517548 328.186432,394.313110 
	C328.388550,389.594177 325.596161,386.164093 320.859009,386.072571 
	C310.896118,385.880066 300.923615,385.822784 290.962463,386.044373 
	C285.278229,386.170807 280.967773,391.302002 281.035309,397.094910 
	C281.097656,402.444305 283.935669,404.715851 291.756561,404.940979 
z"/>
<path fill="#0C133D" opacity="1.000000" stroke="none" 
	d="
M775.991638,323.994415 
	C772.968567,327.123627 770.198364,330.004700 767.027466,333.302429 
	C775.132935,348.070343 783.445984,363.185150 791.728943,378.316467 
	C800.023621,393.469086 808.288269,408.638123 817.048828,424.684204 
	C808.498962,424.684204 800.494873,423.842377 792.744446,424.885345 
	C781.654602,426.377686 776.032043,422.045746 771.422485,412.030487 
	C762.598022,392.857452 752.191833,374.412415 742.088684,354.986023 
	C734.834534,361.728424 727.917175,368.065552 721.153992,374.563232 
	C720.331787,375.353241 720.216309,376.984314 719.981018,378.263794 
	C717.390259,392.351044 714.739563,406.428802 712.361450,420.552307 
	C711.857666,423.544403 711.068481,424.833893 707.757568,424.746887 
	C698.808350,424.511780 689.848816,424.666382 680.333862,424.666382 
	C690.166809,369.552704 699.893433,315.034882 709.670349,260.235046 
	C720.012085,260.235046 730.256714,260.235046 741.283569,260.235046 
	C737.087769,283.814209 732.935303,307.149689 728.782837,330.485199 
	C729.259705,330.857147 729.736572,331.229095 730.213440,331.601044 
	C736.334351,325.057434 742.306702,318.366852 748.605164,311.998810 
	C765.007202,295.415405 781.531616,278.952637 798.084229,262.519257 
	C799.267334,261.344666 801.063354,260.096649 802.593628,260.071899 
	C814.873596,259.873291 827.158081,259.960846 837.558044,259.960846 
	C817.628845,280.693481 796.936646,302.219849 775.991638,323.994415 
z"/>
<path fill="#0B133D" opacity="1.000000" stroke="none" 
	d="
M645.890625,299.745544 
	C648.239197,286.389465 650.522522,273.462646 652.856567,260.248657 
	C663.248474,260.248657 673.473206,260.248657 684.476318,260.248657 
	C683.005188,268.555054 681.596985,276.655853 680.132812,284.746521 
	C675.155396,312.251190 670.415527,339.803009 665.004517,367.222290 
	C663.477356,374.960693 660.605835,382.609131 657.235657,389.774292 
	C648.487854,408.372437 633.689697,420.110168 613.784363,425.019470 
	C597.698792,428.986786 581.447144,429.102448 565.278992,425.222717 
	C541.785278,419.585175 527.122742,401.580017 528.179565,377.421692 
	C528.809143,363.031525 531.679077,348.708069 534.007935,334.430664 
	C537.841492,310.928894 542.048950,287.488037 546.117493,264.024750 
	C546.340454,262.739044 546.735046,261.483124 547.054749,260.193298 
	C557.546509,260.193298 567.817139,260.193298 578.635803,260.193298 
	C576.211243,274.088623 573.880615,287.650421 571.472412,301.198517 
	C568.092468,320.213318 564.426453,339.181305 561.370605,358.247498 
	C560.356689,364.573730 560.158936,371.211060 560.804993,377.582764 
	C561.897827,388.361145 568.551880,395.029572 578.893555,397.727386 
	C588.065491,400.119995 597.325867,400.201965 606.526855,397.500275 
	C622.632019,392.771179 630.677551,380.787903 633.890991,365.458679 
	C638.121216,345.279236 641.354919,324.890961 645.017944,304.592590 
	C645.283813,303.119354 645.556091,301.647339 645.890625,299.745544 
z"/>
<path fill="#0C53D8" opacity="1.000000" stroke="none" 
	d="
M99.202019,466.492432 
	C137.559052,484.989594 177.917023,485.131348 218.842102,479.283051 
	C257.027008,473.826294 293.259094,462.022003 328.455200,444.988342 
	C331.257080,447.086761 333.375610,449.057098 335.552216,451.081451 
	C332.611847,459.196136 332.618805,459.175507 341.817657,462.274933 
	C342.509064,462.507874 343.001678,463.330902 343.586670,463.879639 
	C321.928070,475.454559 299.138336,484.223816 275.663849,491.305786 
	C236.182037,503.217041 195.981644,510.314117 154.589951,508.743652 
	C128.346481,507.747955 103.020493,502.775299 79.908859,489.450256 
	C78.343155,488.547577 76.778725,487.642700 75.230743,486.074646 
	C76.786942,482.346710 75.851875,479.429321 73.099182,478.314667 
	C71.016609,477.471405 68.181831,478.485748 65.681831,478.673401 
	C62.813320,475.772827 59.944801,472.872253 57.030430,469.283813 
	C60.290321,460.691071 64.363144,458.605194 72.229027,460.519958 
	C73.732307,460.885864 75.940422,461.136566 76.926880,460.335938 
	C80.183220,457.692993 83.584091,458.281708 87.125969,458.952271 
	C87.964691,459.488464 88.803413,460.024689 89.819870,461.211609 
	C89.955215,462.520721 89.863235,463.180359 89.879906,463.837250 
	C89.926483,465.672913 90.018028,467.507385 90.091827,469.342346 
	C92.070107,469.096954 94.100800,469.046448 96.007195,468.533752 
	C97.170959,468.220795 98.143555,467.196960 99.202019,466.492432 
M81.865654,465.553680 
	C80.927170,466.001862 79.148514,466.582428 79.194695,466.875427 
	C79.401802,468.189453 79.935478,469.577545 80.765739,470.603485 
	C81.079384,470.991058 82.511383,470.473541 83.433586,470.368622 
	C83.113884,468.924377 82.794182,467.480164 81.865654,465.553680 
z"/>
<path fill="#0950D5" opacity="1.000000" stroke="none" 
	d="
M343.859802,463.856567 
	C343.001678,463.330902 342.509064,462.507874 341.817657,462.274933 
	C332.618805,459.175507 332.611847,459.196136 335.552216,451.081451 
	C333.375610,449.057098 331.257080,447.086761 328.799377,444.951477 
	C337.381348,439.486847 346.302551,434.187164 355.593506,429.188965 
	C356.618927,431.602814 357.274597,433.715271 357.947693,435.883881 
	C365.203094,432.744965 365.443237,432.180145 363.958557,422.888519 
	C370.679077,416.701111 377.688110,410.793945 384.042969,404.251373 
	C391.103882,396.981934 391.138031,389.697845 384.649414,382.045074 
	C370.111694,364.899048 355.440491,347.866180 341.050903,330.404358 
	C342.011810,329.403839 342.651001,328.556152 343.495819,328.209137 
	C346.827942,326.840393 350.298004,324.451050 353.578888,324.655457 
	C357.730621,324.914093 361.772980,327.267090 365.807343,328.856842 
	C366.959137,329.310699 368.006897,330.151062 368.952515,330.984253 
	C372.837402,334.407135 375.875183,339.140015 381.951569,339.087830 
	C382.514130,339.082977 383.513702,339.539368 383.581787,339.914032 
	C384.659149,345.842773 389.338623,344.424164 393.294434,345.132233 
	C397.312256,345.851379 401.535645,344.898285 405.043488,349.425293 
	C409.036285,354.578125 417.216980,352.137268 420.328064,345.970215 
	C421.771576,344.960083 422.885803,343.979767 424.297729,342.990204 
	C424.793213,342.962128 424.990906,342.943329 425.188599,342.924530 
	C431.631775,350.495178 438.470703,357.771790 444.386871,365.734009 
	C448.741211,371.594269 448.006653,378.281342 444.074402,384.436981 
	C433.012543,401.753662 418.252899,415.513824 401.382385,428.013153 
	C398.317474,428.997528 395.902283,429.741486 393.687469,430.876465 
	C390.645599,432.435394 387.736542,434.259216 384.808594,436.032349 
	C383.430939,436.866608 382.151031,437.860840 380.810730,438.758575 
	C378.665924,440.195221 376.685455,442.199585 374.318420,442.915375 
	C369.276276,444.440125 366.248260,447.768066 364.079651,452.238464 
	C362.313232,453.552948 360.546814,454.867401 358.390381,455.881348 
	C355.780823,451.460510 353.561279,447.340149 351.185089,442.929077 
	C349.612640,447.680634 348.091583,452.107971 346.693542,456.573853 
	C346.013031,458.747681 345.562378,460.993530 345.007660,463.206757 
	C344.716095,463.415680 344.424500,463.624603 343.859802,463.856567 
z"/>
<path fill="#072BA5" opacity="1.000000" stroke="none" 
	d="
M190.010284,366.045776 
	C173.331589,367.734406 157.141113,365.782379 141.688156,359.133698 
	C119.240028,349.475281 106.949501,328.383301 108.895409,302.758759 
	C109.332138,297.007751 110.595032,291.319489 111.988113,285.518463 
	C113.814072,292.055206 119.376747,297.951752 126.041359,297.758575 
	C132.829117,297.561798 136.413208,301.544403 140.101929,305.761505 
	C143.535538,309.686951 147.317535,311.844208 152.617065,310.276367 
	C155.635788,309.383301 157.206024,310.581635 158.047653,313.624512 
	C158.487152,315.213593 159.939682,316.522430 160.934677,317.957855 
	C162.554764,316.667816 164.174835,315.377747 165.794922,314.087708 
	C168.418060,316.171478 171.041183,318.255249 173.682312,320.824951 
	C169.563721,321.755737 168.952286,324.982666 169.230438,327.100037 
	C171.393845,328.964661 173.046753,331.275818 174.334747,333.775055 
	C176.676102,338.318146 180.494354,339.964020 185.333008,340.006805 
	C192.850464,340.073303 196.116150,342.657196 198.791733,350.920898 
	C193.269455,353.196014 190.104065,357.541901 189.692276,363.727051 
	C186.832092,363.912079 184.427536,364.067627 181.320633,364.268585 
	C184.710617,364.961914 187.360443,365.503845 190.010284,366.045776 
z"/>
<path fill="#0D5ADF" opacity="1.000000" stroke="none" 
	d="
M246.588120,227.832855 
	C246.588120,227.832855 246.563080,227.366226 246.900391,227.124893 
	C247.326614,226.793365 247.507751,226.660233 247.489090,226.620148 
	C247.389069,226.405411 247.239227,226.213882 247.106628,226.014313 
	C247.122101,225.554092 247.137558,225.093887 247.553314,224.258240 
	C247.963821,223.253174 247.974014,222.623550 247.984207,221.993912 
	C248.006607,221.539505 248.029007,221.085114 248.457825,220.261871 
	C248.876877,219.249466 248.889557,218.605911 248.902222,217.962357 
	C249.140900,216.514389 249.379562,215.066406 250.171906,213.348389 
	C252.530380,214.165237 254.942551,214.833817 256.030914,216.414093 
	C259.970276,222.134109 265.862335,223.016388 271.964600,224.153656 
	C274.169708,224.564621 276.144958,226.637878 278.033630,228.186142 
	C279.628448,229.493546 280.718170,232.025085 282.430267,232.465881 
	C287.318939,233.724457 292.410797,234.193771 297.422729,234.973541 
	C296.958344,237.416687 296.299927,239.843201 296.088531,242.308044 
	C295.906738,244.427689 296.235107,246.591095 296.337891,248.735168 
	C298.535522,248.604309 300.733154,248.473465 303.456085,248.608917 
	C306.507416,248.799881 309.398865,249.462250 311.457214,248.442703 
	C313.534729,247.413696 314.785828,244.716293 316.544739,242.572174 
	C318.750946,245.202606 321.028961,248.250473 323.676331,250.933990 
	C324.984833,252.260361 327.345184,254.063416 328.587555,253.662262 
	C332.625641,252.358383 334.211884,255.039871 335.757751,257.391510 
	C338.735413,261.921082 342.287781,265.223206 348.002197,265.513580 
	C351.904968,265.711914 353.269623,267.749329 353.168793,271.699738 
	C353.121216,273.564240 354.430145,276.563873 355.891907,277.156738 
	C360.013794,278.828369 364.297180,278.607391 367.292267,274.395233 
	C379.796112,289.047455 392.299957,303.699677 404.940674,318.993835 
	C405.535767,319.978729 405.994019,320.321625 406.452271,320.664551 
	C406.452271,320.664551 406.138611,320.726715 406.153412,321.056732 
	C403.727966,327.724426 399.242218,329.220459 394.013733,325.382477 
	C389.785614,322.278778 385.778687,318.837097 381.360962,316.039001 
	C377.148407,313.370911 372.540680,311.323456 368.089203,309.037170 
	C365.064453,307.483673 361.795776,306.301971 359.012848,304.402252 
	C353.321472,300.517059 347.984497,296.113617 342.304108,292.211029 
	C338.877869,289.857117 333.364380,289.987549 333.219086,283.951996 
	C333.205200,283.376465 332.141541,282.743530 331.466766,282.280884 
	C328.599976,280.315308 325.793060,278.233093 322.778778,276.519928 
	C319.653625,274.743713 316.487518,273.415039 313.643494,277.444366 
	C311.713684,280.178497 309.855042,278.715454 308.164795,276.746429 
	C314.468536,272.073120 313.837799,268.642334 307.348755,263.972107 
	C303.060486,260.885742 299.207550,257.913055 293.558105,258.851105 
	C292.806915,258.975830 291.827881,258.037567 291.024231,257.489197 
	C283.894989,252.624466 277.295380,246.536636 269.514008,243.204269 
	C262.215851,240.078827 256.556824,232.481705 247.718765,234.483887 
	C247.295807,231.995850 246.941956,229.914352 246.588120,227.832855 
z"/>
<path fill="#1582FD" opacity="1.000000" stroke="none" 
	d="
M476.982086,136.663589 
	C492.350922,136.212219 507.222992,138.309189 520.813232,145.990311 
	C537.133728,155.214539 544.828613,171.511078 542.390747,190.711914 
	C539.901245,210.319550 531.815369,227.817169 521.735535,244.430252 
	C502.940887,275.406677 479.407013,302.549408 453.132507,327.361694 
	C450.382751,329.958435 446.805115,331.678497 443.611603,333.805328 
	C443.228088,333.313477 442.844574,332.821655 442.461060,332.329834 
	C447.281952,326.782288 452.162476,321.285248 456.913391,315.678436 
	C478.193024,290.565277 497.695282,264.239136 511.598541,234.189178 
	C517.649109,221.111710 522.400696,207.595200 522.535950,192.953033 
	C522.705017,174.645111 514.418579,161.425598 497.979431,153.381104 
	C495.297272,152.068558 492.444916,151.103729 489.346466,149.440704 
	C490.777496,142.289429 489.799713,141.086670 482.913483,140.970108 
	C480.023712,140.921173 477.139374,140.552139 473.078094,140.237686 
	C475.195282,138.299423 476.088684,137.481506 476.982086,136.663589 
z"/>
<path fill="#0D5ADF" opacity="1.000000" stroke="none" 
	d="
M953.929688,353.373718 
	C944.626953,361.483490 933.328003,365.097504 921.458618,365.858032 
	C905.704102,366.867523 889.866394,366.577362 873.273560,367.048859 
	C871.328064,366.432312 869.842407,365.832520 869.110840,364.731628 
	C868.362427,363.605347 868.701599,361.760803 867.960815,360.624329 
	C864.604553,355.475189 856.124756,353.995361 850.886047,357.469940 
	C848.804016,358.850800 846.770325,359.726410 845.019714,357.001770 
	C846.147339,350.184296 847.274963,343.366791 848.899902,336.427795 
	C849.998840,337.135040 850.600525,337.963837 851.876892,339.722046 
	C852.673462,336.202637 853.085571,333.688995 853.820435,331.273529 
	C855.580811,325.487732 857.849731,324.697113 862.093994,328.720001 
	C864.680603,331.171722 867.023926,331.428894 870.110229,329.990814 
	C876.985962,326.787079 877.291382,327.092896 876.806946,334.468597 
	C876.754395,335.269226 878.104309,336.161987 878.842590,337.443726 
	C880.249329,338.534760 881.607849,339.741364 882.986511,339.764709 
	C892.120850,339.919464 901.259827,339.768951 910.396729,339.818573 
	C919.287415,339.866882 927.493469,337.796631 934.768433,332.797668 
	C936.161011,335.548401 937.183411,338.128601 938.866150,340.162476 
	C941.562439,343.421478 944.562683,346.465576 947.696594,349.311920 
	C949.508972,350.957977 951.834900,352.038605 953.929688,353.373718 
z"/>
<path fill="#1576F9" opacity="1.000000" stroke="none" 
	d="
M860.980713,265.995117 
	C860.370667,261.257965 862.338928,259.739288 867.158630,259.804871 
	C887.120117,260.076599 907.093506,259.651642 927.049622,260.080536 
	C942.630981,260.415436 957.222046,264.247894 967.461121,277.209778 
	C976.354980,288.468750 977.703796,301.613220 975.421143,315.353790 
	C975.354797,315.753357 974.776489,316.067841 973.927246,316.438660 
	C973.417542,312.776306 973.417542,309.097229 973.417542,306.680054 
	C970.014282,304.539429 967.088013,303.171173 964.748840,301.130035 
	C959.730408,296.750885 956.190796,296.732330 952.419128,302.067200 
	C949.990540,305.502167 948.116943,309.329468 945.677979,312.981567 
	C944.939270,312.990051 944.517212,312.997925 944.040771,312.619904 
	C946.375183,301.512634 940.984131,291.864807 930.284180,289.141235 
	C924.714417,287.723480 918.778931,287.742279 913.011597,286.738983 
	C913.879333,284.486176 914.744202,282.606537 915.835022,280.235748 
	C911.010925,278.142334 906.395081,275.419983 901.412354,274.216095 
	C897.756836,273.332825 894.067261,273.962189 891.328369,270.203186 
	C890.244080,268.715027 887.142273,268.095917 884.970154,268.118988 
	C879.434998,268.177826 873.971375,268.675629 871.257935,262.284851 
	C871.197449,262.142303 870.640137,262.210693 870.314575,262.180695 
	C870.391846,262.637115 870.469177,263.093506 870.546448,263.549927 
	C867.357849,264.364990 864.169312,265.180054 860.980713,265.995117 
z"/>
<path fill="#0D57DC" opacity="1.000000" stroke="none" 
	d="
M246.404327,228.149719 
	C246.941956,229.914352 247.295807,231.995850 247.718765,234.483887 
	C256.556824,232.481705 262.215851,240.078827 269.514008,243.204269 
	C277.295380,246.536636 283.894989,252.624466 291.024231,257.489197 
	C291.827881,258.037567 292.806915,258.975830 293.558105,258.851105 
	C299.207550,257.913055 303.060486,260.885742 307.348755,263.972107 
	C313.837799,268.642334 314.468536,272.073120 308.164795,276.746429 
	C309.855042,278.715454 311.713684,280.178497 313.643494,277.444366 
	C316.487518,273.415039 319.653625,274.743713 322.778778,276.519928 
	C325.793060,278.233093 328.599976,280.315308 331.466766,282.280884 
	C332.141541,282.743530 333.205200,283.376465 333.219086,283.951996 
	C333.364380,289.987549 338.877869,289.857117 342.304108,292.211029 
	C347.984497,296.113617 353.321472,300.517059 359.012848,304.402252 
	C361.795776,306.301971 365.064453,307.483673 368.089203,309.037170 
	C372.540680,311.323456 377.148407,313.370911 381.360962,316.039001 
	C385.778687,318.837097 389.785614,322.278778 394.013733,325.382477 
	C399.242218,329.220459 403.727966,327.724426 406.301941,320.997620 
	C412.137848,327.552460 417.839966,334.496368 423.770996,341.953308 
	C423.999969,342.644012 423.999969,342.821747 424.000000,342.999451 
	C422.885803,343.979767 421.771576,344.960083 419.938538,345.969452 
	C414.559814,346.027985 412.201782,343.066498 410.072021,339.419952 
	C409.249176,338.011108 407.041992,336.076813 405.971466,336.351776 
	C394.533356,339.289642 387.551056,329.079102 377.849152,327.120514 
	C377.599365,327.070099 377.464355,326.587677 377.214020,326.381927 
	C374.818176,324.412598 372.580078,322.183014 369.964630,320.564789 
	C365.764435,317.966003 360.575226,316.546997 357.119598,313.250397 
	C349.906586,306.369293 341.994812,301.815063 331.968414,300.999908 
	C326.018188,300.516144 325.637299,300.766144 325.633057,306.844086 
	C325.632050,308.307068 325.166565,309.769714 324.914673,311.232513 
	C322.071991,308.338531 319.229340,305.444519 316.471039,302.079132 
	C316.997192,301.116089 317.357605,300.496460 317.894806,300.154816 
	C320.287628,298.633179 323.740295,298.145081 323.007111,293.921204 
	C322.300140,289.848480 319.579193,288.660645 316.021301,287.326233 
	C309.332489,284.817505 302.113159,282.582764 299.770691,274.259491 
	C299.397125,272.932007 297.263031,271.586823 295.705811,271.197174 
	C289.890533,269.742096 285.014435,266.962036 280.958435,262.540741 
	C279.664429,261.130219 277.924774,260.089172 276.284088,259.043854 
	C272.155609,256.413391 267.346710,254.509125 263.938782,251.164291 
	C257.818420,245.157227 251.033112,243.250534 242.906326,244.995850 
	C244.011063,239.486084 245.115799,233.976334 246.404327,228.149719 
z"/>
<path fill="#1478FA" opacity="1.000000" stroke="none" 
	d="
M1084.612183,350.088684 
	C1084.578491,350.530426 1084.544800,350.972168 1083.923340,351.702087 
	C1080.790039,351.057861 1077.888184,350.615967 1075.777710,349.083954 
	C1072.137817,346.441528 1064.438477,345.297791 1060.415649,347.272827 
	C1058.560669,348.183563 1056.433594,348.540253 1054.268433,348.853149 
	C1050.866699,336.811432 1042.471436,332.262909 1030.961914,331.649811 
	C1028.710205,329.861084 1026.555664,328.326202 1024.259033,327.045959 
	C1023.028687,326.360107 1021.329834,326.419525 1020.227966,325.614716 
	C1015.044128,321.828156 1009.993896,317.858673 1004.895996,313.954468 
	C1020.611267,305.365936 1047.157715,302.561890 1061.798828,323.058502 
	C1062.684082,318.607574 1063.459351,314.709412 1064.296753,310.498688 
	C1073.396606,310.498688 1082.420898,310.498688 1091.866943,310.498688 
	C1089.543335,323.448517 1087.292114,335.994446 1084.623047,348.872986 
	C1084.340698,349.500000 1084.476440,349.794342 1084.612183,350.088684 
z"/>
<path fill="#138AFD" opacity="1.000000" stroke="none" 
	d="
M374.917816,181.968872 
	C381.022400,174.073242 388.634857,170.433075 399.027954,170.772552 
	C418.834991,171.419495 438.678741,170.942307 458.507233,170.932037 
	C460.113434,170.931213 461.719635,170.931931 464.762512,170.931931 
	C449.097046,185.502029 434.421051,199.151871 419.129395,212.788391 
	C409.666534,205.654282 404.128021,194.434616 392.002167,191.362778 
	C391.715851,191.290222 391.526642,190.895920 391.244385,190.735901 
	C387.720734,188.738297 384.207733,186.720520 380.650085,184.784897 
	C378.781677,183.768356 376.831238,182.902679 374.917816,181.968872 
z"/>
<path fill="#0D57DC" opacity="1.000000" stroke="none" 
	d="
M86.947525,458.666290 
	C83.584091,458.281708 80.183220,457.692993 76.926880,460.335938 
	C75.940422,461.136566 73.732307,460.885864 72.229027,460.519958 
	C64.363144,458.605194 60.290321,460.691071 56.924980,468.975891 
	C44.671021,454.588654 40.057747,437.350220 41.532600,418.628662 
	C43.933632,388.150513 58.290428,362.600098 75.940567,338.568359 
	C76.065567,338.398163 76.495514,338.451935 77.516663,338.271484 
	C75.304253,342.916077 73.296516,347.192200 71.236938,351.443268 
	C64.794861,364.740051 60.493282,378.686646 58.913803,393.385681 
	C56.029770,420.225128 64.935585,442.093536 86.947525,458.666290 
z"/>
<path fill="#117DFB" opacity="1.000000" stroke="none" 
	d="
M374.614227,182.101715 
	C376.831238,182.902679 378.781677,183.768356 380.650085,184.784897 
	C384.207733,186.720520 387.720734,188.738297 391.244385,190.735901 
	C391.526642,190.895920 391.715851,191.290222 392.002167,191.362778 
	C404.128021,194.434616 409.666534,205.654282 418.824493,212.921051 
	C410.353394,221.327133 401.571594,229.587234 392.129944,237.780029 
	C390.980286,236.054993 390.520721,234.387558 389.992126,232.742279 
	C389.459412,231.084198 389.359192,228.803558 388.205688,227.906860 
	C380.576660,221.976273 372.760101,216.281281 364.875610,210.691559 
	C363.812897,209.938141 362.032806,210.095184 360.574982,210.018539 
	C355.053802,209.728256 353.377319,208.142700 352.869537,202.570740 
	C360.016571,195.792007 367.163605,189.013290 374.614227,182.101715 
z"/>
<path fill="#106FF3" opacity="1.000000" stroke="none" 
	d="
M1179.049805,375.997742 
	C1174.405640,384.593658 1169.761475,393.189636 1164.467651,401.921417 
	C1162.375244,400.053009 1161.358643,397.331787 1159.412354,396.175232 
	C1152.844360,392.272552 1146.915649,387.031433 1139.083984,385.545502 
	C1133.822266,384.547180 1129.109253,380.449463 1123.194336,382.963776 
	C1121.415405,383.720001 1119.321655,383.735504 1117.372070,384.090302 
	C1117.372070,384.090302 1117.413574,383.730713 1117.589355,383.378448 
	C1117.499146,382.686432 1117.233154,382.346649 1116.967041,382.006866 
	C1114.810425,371.985596 1112.653809,361.964325 1110.886230,351.474701 
	C1111.869751,350.741943 1112.885376,350.594666 1112.996338,350.195801 
	C1115.018799,342.920593 1119.201782,345.889038 1123.501953,347.677460 
	C1128.323608,349.682770 1133.361450,351.168152 1138.305298,352.879761 
	C1138.757446,353.708038 1139.209473,354.536316 1139.272827,355.685303 
	C1138.311401,356.633698 1137.738647,357.261383 1137.165894,357.889099 
	C1138.147461,358.591949 1139.129150,359.294800 1140.110840,359.997681 
	C1141.707275,368.577148 1143.303711,377.156647 1145.104004,386.831604 
	C1149.581787,378.367188 1153.529053,370.905609 1158.003906,363.440979 
	C1158.927856,364.152313 1159.153442,365.265289 1159.746948,365.519531 
	C1165.842163,368.130951 1172.818359,369.196198 1176.668091,375.642395 
	C1176.928833,376.079193 1178.231689,375.893768 1179.049805,375.997742 
z"/>
<path fill="#1064E9" opacity="1.000000" stroke="none" 
	d="
M367.161621,274.093994 
	C364.297180,278.607391 360.013794,278.828369 355.891907,277.156738 
	C354.430145,276.563873 353.121216,273.564240 353.168793,271.699738 
	C353.269623,267.749329 351.904968,265.711914 348.002197,265.513580 
	C342.287781,265.223206 338.735413,261.921082 335.757751,257.391510 
	C334.211884,255.039871 332.625641,252.358383 328.587555,253.662262 
	C327.345184,254.063416 324.984833,252.260361 323.676331,250.933990 
	C321.028961,248.250473 318.750946,245.202606 316.544739,242.572174 
	C314.785828,244.716293 313.534729,247.413696 311.457214,248.442703 
	C309.398865,249.462250 306.507416,248.799881 303.812561,248.502289 
	C311.133026,241.138611 318.622284,234.147873 326.785889,227.046829 
	C329.248779,226.601074 331.324066,225.512283 332.774628,226.064514 
	C338.178986,228.122116 343.453003,230.568665 348.633575,233.154480 
	C353.885101,235.775726 358.746552,239.312637 364.182068,241.396790 
	C370.765106,243.920929 372.032410,244.304657 371.597870,251.224121 
	C371.396149,254.435974 373.030029,253.874588 374.643768,254.255234 
	C371.597992,257.170105 368.698364,260.260468 365.466736,262.952179 
	C362.002716,265.837494 361.725159,268.519073 365.043518,271.585449 
	C365.767578,272.254578 366.371643,273.053589 367.161621,274.093994 
z"/>
<path fill="#0731AD" opacity="1.000000" stroke="none" 
	d="
M165.691193,313.747559 
	C164.174835,315.377747 162.554764,316.667816 160.934677,317.957855 
	C159.939682,316.522430 158.487152,315.213593 158.047653,313.624512 
	C157.206024,310.581635 155.635788,309.383301 152.617065,310.276367 
	C147.317535,311.844208 143.535538,309.686951 140.101929,305.761505 
	C136.413208,301.544403 132.829117,297.561798 126.041359,297.758575 
	C119.376747,297.951752 113.814072,292.055206 112.214157,285.200958 
	C112.978523,278.773041 114.027374,272.578796 115.693390,266.258514 
	C118.434471,267.420990 120.571663,269.802795 122.679642,269.777222 
	C127.518349,269.718506 131.101791,271.667419 134.879364,274.240051 
	C139.033463,277.069122 143.454269,279.673645 148.819962,276.167877 
	C152.037064,274.065887 155.180298,274.554535 158.195755,277.467377 
	C159.677979,278.899170 162.269043,279.183075 164.358322,279.986420 
	C163.470642,286.727936 161.905487,293.472504 161.936295,300.209839 
	C161.956421,304.614502 164.290085,309.008606 165.691193,313.747559 
z"/>
<path fill="#0B52D6" opacity="1.000000" stroke="none" 
	d="
M242.681976,245.306488 
	C251.033112,243.250534 257.818420,245.157227 263.938782,251.164291 
	C267.346710,254.509125 272.155609,256.413391 276.284088,259.043854 
	C277.924774,260.089172 279.664429,261.130219 280.958435,262.540741 
	C285.014435,266.962036 289.890533,269.742096 295.705811,271.197174 
	C297.263031,271.586823 299.397125,272.932007 299.770691,274.259491 
	C302.113159,282.582764 309.332489,284.817505 316.021301,287.326233 
	C319.579193,288.660645 322.300140,289.848480 323.007111,293.921204 
	C323.740295,298.145081 320.287628,298.633179 317.894806,300.154816 
	C317.357605,300.496460 316.997192,301.116089 316.276062,301.806824 
	C312.139587,297.727905 308.392273,293.344147 304.398376,289.197937 
	C299.060577,283.656555 292.543213,283.252197 285.432251,287.920715 
	C279.399048,284.738586 274.031067,281.447510 268.695801,278.104309 
	C268.009979,277.674530 267.528473,276.932220 266.893616,276.405426 
	C259.293182,270.098541 250.562973,267.071411 240.552078,267.083954 
	C240.117950,265.944611 239.556366,264.470703 238.994781,262.996826 
	C240.149063,257.203583 241.303345,251.410355 242.681976,245.306488 
z"/>
<path fill="#116BF3" opacity="1.000000" stroke="none" 
	d="
M302.664185,212.040131 
	C302.578979,212.797775 302.493805,213.555420 301.863403,214.652054 
	C294.877228,210.825912 288.190552,206.988739 282.067383,202.399658 
	C276.404083,198.155243 272.296295,191.539795 263.942566,191.863586 
	C263.133728,191.894943 262.347198,190.434372 261.418945,189.890717 
	C259.600586,188.825760 257.689453,187.919128 255.816742,186.946960 
	C257.986084,177.705765 260.155396,168.464569 262.674377,159.479858 
	C263.723755,160.478226 264.304657,161.418945 265.146881,161.922501 
	C267.213654,163.158218 269.400818,164.192490 271.963135,165.528671 
	C273.007629,163.786499 274.713409,163.648224 277.576691,165.855453 
	C283.437836,170.373657 289.359711,175.228439 296.043365,178.136322 
	C301.654846,180.577728 304.521149,184.867249 308.012329,189.013458 
	C306.399048,196.231400 304.785736,203.449341 302.709534,210.944214 
	C302.385803,211.494125 302.524994,211.767120 302.664185,212.040131 
M265.021393,170.832932 
	C265.264313,169.735291 265.507233,168.637650 265.750153,167.540009 
	C264.598236,167.696213 263.446289,167.852417 262.294373,168.008606 
	C262.951385,168.985443 263.608398,169.962280 265.021393,170.832932 
z"/>
<path fill="#0B52D6" opacity="1.000000" stroke="none" 
	d="
M132.911194,181.989334 
	C134.664200,174.316055 136.417206,166.642792 138.677185,159.162384 
	C146.820557,162.228577 154.474182,165.057114 162.088364,167.988159 
	C169.354614,170.785248 177.051010,172.918854 180.662918,181.079422 
	C181.368927,182.674576 183.321564,183.717972 184.699219,185.015854 
	C182.744446,193.683319 180.789658,202.350784 178.440979,210.753998 
	C176.870010,206.016403 174.054459,202.925156 169.739273,201.471848 
	C166.488937,200.377197 162.886246,200.207474 159.770493,198.861755 
	C154.580688,196.620285 149.712952,193.644302 144.590927,191.229294 
	C142.464325,190.226608 139.742630,188.880478 137.805054,189.446960 
	C134.651062,190.369080 133.237198,189.324280 131.916107,186.970352 
	C131.927567,186.412231 131.939011,185.854111 132.451355,185.009323 
	C132.938553,183.811554 132.924866,182.900436 132.911194,181.989334 
z"/>
<path fill="#0B49CA" opacity="1.000000" stroke="none" 
	d="
M238.787674,263.313477 
	C239.556366,264.470703 240.117950,265.944611 240.552078,267.083954 
	C250.562973,267.071411 259.293182,270.098541 266.893616,276.405426 
	C267.528473,276.932220 268.009979,277.674530 268.695801,278.104309 
	C274.031067,281.447510 279.399048,284.738586 285.138947,288.099396 
	C281.714508,297.684265 277.908020,307.215485 273.496735,316.905823 
	C272.727570,315.764557 272.685822,314.433289 272.367828,313.171661 
	C271.972290,311.602112 271.348572,310.090088 270.823364,308.553253 
	C266.937317,310.093842 265.241241,306.474426 262.543030,305.134827 
	C256.790192,302.278778 250.900375,299.696747 245.042114,297.056946 
	C244.005798,296.589935 242.643387,295.831268 241.783264,296.151611 
	C235.734573,298.404358 233.561035,295.491760 233.095810,290.013763 
	C234.924057,281.219238 236.752304,272.424683 238.787674,263.313477 
z"/>
<path fill="#106FF3" opacity="1.000000" stroke="none" 
	d="
M374.927917,254.126221 
	C373.030029,253.874588 371.396149,254.435974 371.597870,251.224121 
	C372.032410,244.304657 370.765106,243.920929 364.182068,241.396790 
	C358.746552,239.312637 353.885101,235.775726 348.633575,233.154480 
	C343.453003,230.568665 338.178986,228.122116 332.774628,226.064514 
	C331.324066,225.512283 329.248779,226.601074 327.081116,226.908020 
	C335.200653,218.850555 343.699310,210.821625 352.533752,202.681717 
	C353.377319,208.142700 355.053802,209.728256 360.574982,210.018539 
	C362.032806,210.095184 363.812897,209.938141 364.875610,210.691559 
	C372.760101,216.281281 380.576660,221.976273 388.205688,227.906860 
	C389.359192,228.803558 389.459412,231.084198 389.992126,232.742279 
	C390.520721,234.387558 390.980286,236.054993 391.821808,237.898590 
	C386.519684,243.388718 380.865845,248.692947 374.927917,254.126221 
z"/>
<path fill="#0731AD" opacity="1.000000" stroke="none" 
	d="
M190.456543,366.107300 
	C187.360443,365.503845 184.710617,364.961914 181.320633,364.268585 
	C184.427536,364.067627 186.832092,363.912079 189.692276,363.727051 
	C190.104065,357.541901 193.269455,353.196014 198.791733,350.920898 
	C196.116150,342.657196 192.850464,340.073303 185.333008,340.006805 
	C180.494354,339.964020 176.676102,338.318146 174.334747,333.775055 
	C173.046753,331.275818 171.393845,328.964661 169.230438,327.100037 
	C168.952286,324.982666 169.563721,321.755737 173.881409,321.090637 
	C182.093826,324.180115 190.376648,324.945312 199.495178,323.682281 
	C204.449448,327.478638 209.570236,330.306793 212.936920,334.532501 
	C216.134857,338.546387 219.291000,340.965576 224.336182,341.007874 
	C230.427353,341.058960 232.131119,343.305420 230.744904,349.313324 
	C230.155243,351.868835 229.577759,354.427185 228.994720,356.984222 
	C217.001999,362.967957 204.076538,365.083282 190.456543,366.107300 
z"/>
<path fill="#0838B6" opacity="1.000000" stroke="none" 
	d="
M164.546783,279.711365 
	C162.269043,279.183075 159.677979,278.899170 158.195755,277.467377 
	C155.180298,274.554535 152.037064,274.065887 148.819962,276.167877 
	C143.454269,279.673645 139.033463,277.069122 134.879364,274.240051 
	C131.101791,271.667419 127.518349,269.718506 122.679642,269.777222 
	C120.571663,269.802795 118.434471,267.420990 115.955139,265.975616 
	C117.426949,256.340942 119.254158,246.863174 121.701797,237.244507 
	C126.510025,237.337448 130.496643,237.508148 134.163773,240.454208 
	C137.937225,243.485626 142.443390,245.625763 146.699738,248.030609 
	C153.472870,251.857452 163.131958,252.356628 163.857712,263.089172 
	C163.869354,263.261292 164.388107,263.399170 164.694168,263.566071 
	C165.842422,263.045868 166.999329,262.521729 168.156235,261.997589 
	C167.015915,267.810486 165.875595,273.623383 164.546783,279.711365 
z"/>
<path fill="#1066EC" opacity="1.000000" stroke="none" 
	d="
M1117.361816,384.531128 
	C1119.321655,383.735504 1121.415405,383.720001 1123.194336,382.963776 
	C1129.109253,380.449463 1133.822266,384.547180 1139.083984,385.545502 
	C1146.915649,387.031433 1152.844360,392.272552 1159.412354,396.175232 
	C1161.358643,397.331787 1162.375244,400.053009 1164.226074,402.126251 
	C1159.288940,411.983856 1153.943481,421.772461 1148.011108,431.819946 
	C1146.295898,432.490234 1145.167480,432.901642 1144.039185,433.313049 
	C1144.137085,431.981537 1144.076904,430.611877 1144.386108,429.331421 
	C1144.608276,428.410736 1145.157715,427.430756 1145.849854,426.788177 
	C1147.801025,424.976746 1148.861328,422.751740 1146.761230,420.839386 
	C1144.999023,419.234711 1142.403564,417.687256 1140.171875,417.679901 
	C1137.558472,417.671356 1134.951416,419.392700 1132.319702,420.300049 
	C1129.222534,421.367950 1126.375366,421.977356 1125.895630,417.241150 
	C1125.814941,416.445007 1124.591797,415.764618 1123.896362,415.030762 
	C1121.714722,405.011139 1119.533203,394.991547 1117.361816,384.531128 
z"/>
<path fill="#0B49CA" opacity="1.000000" stroke="none" 
	d="
M131.738083,187.303955 
	C133.237198,189.324280 134.651062,190.369080 137.805054,189.446960 
	C139.742630,188.880478 142.464325,190.226608 144.590927,191.229294 
	C149.712952,193.644302 154.580688,196.620285 159.770493,198.861755 
	C162.886246,200.207474 166.488937,200.377197 169.739273,201.471848 
	C174.054459,202.925156 176.870010,206.016403 178.079803,210.874756 
	C177.023270,218.235291 175.934036,225.210815 174.338165,232.638000 
	C171.724030,234.815887 169.840668,235.751022 167.527664,233.043976 
	C165.913910,231.155289 163.757523,229.608871 161.591873,228.338577 
	C157.201569,225.763412 152.761948,223.206253 148.120193,221.141922 
	C141.786072,218.324951 137.043839,211.390244 128.725098,213.459244 
	C128.265060,213.573654 127.505440,212.483475 126.885269,211.953979 
	C128.443527,203.848495 130.001785,195.743027 131.738083,187.303955 
z"/>
<path fill="#0D5ADF" opacity="1.000000" stroke="none" 
	d="
M1072.670532,416.018066 
	C1071.666748,424.249817 1071.666748,424.242279 1063.428955,424.225067 
	C1057.349854,424.212372 1051.270630,424.222595 1044.788574,424.222595 
	C1045.213379,419.976257 1045.582764,416.283813 1046.011475,411.997650 
	C1042.929932,414.550537 1040.298096,416.730865 1037.182129,418.603455 
	C1033.771606,413.111115 1030.832031,408.022583 1023.501099,408.890778 
	C1022.646973,408.991974 1021.131165,408.077667 1020.798401,407.272156 
	C1018.516113,401.748169 1014.455750,404.045410 1010.777222,404.842407 
	C1007.934570,405.458344 1005.157104,406.708557 1002.309021,406.852112 
	C1000.312256,406.952728 998.245422,405.664703 996.209900,404.996826 
	C997.274841,403.103577 997.947327,400.758423 999.491760,399.417450 
	C1002.157532,397.102753 1002.555298,394.624359 999.864502,392.917450 
	C998.386902,391.980103 995.267517,392.457062 993.474670,393.405060 
	C987.502563,396.562927 981.795593,400.222260 975.627808,403.903809 
	C975.382874,402.784088 975.188965,401.897552 975.146240,400.702454 
	C980.365906,394.494537 980.323730,393.053680 976.551636,386.716064 
	C975.354370,384.704376 975.347351,381.984253 974.795654,379.588318 
	C975.242432,379.226074 975.689270,378.863831 976.136047,378.501556 
	C980.104309,379.908569 985.276489,380.226624 987.762146,382.974670 
	C991.607544,387.226074 996.406372,388.736542 1001.331299,391.190186 
	C1005.125305,398.512543 1011.308289,401.352051 1018.806763,402.099426 
	C1028.157593,403.031464 1035.868408,399.393066 1042.979248,393.875610 
	C1047.675415,396.485596 1052.066040,399.072754 1056.737549,400.968323 
	C1061.980591,403.095795 1066.256104,405.787445 1068.358521,411.440643 
	C1069.031616,413.250641 1071.191162,414.507904 1072.670532,416.018066 
z"/>
<path fill="#1064E9" opacity="1.000000" stroke="none" 
	d="
M255.607758,187.251617 
	C257.689453,187.919128 259.600586,188.825760 261.418945,189.890717 
	C262.347198,190.434372 263.133728,191.894943 263.942566,191.863586 
	C272.296295,191.539795 276.404083,198.155243 282.067383,202.399658 
	C288.190552,206.988739 294.877228,210.825912 301.690826,214.996490 
	C300.644196,221.457855 299.224884,227.913803 297.614136,234.671646 
	C292.410797,234.193771 287.318939,233.724457 282.430267,232.465881 
	C280.718170,232.025085 279.628448,229.493546 278.033630,228.186142 
	C276.144958,226.637878 274.169708,224.564621 271.964600,224.153656 
	C265.862335,223.016388 259.970276,222.134109 256.030914,216.414093 
	C254.942551,214.833817 252.530380,214.165237 250.371475,213.039459 
	C251.811172,204.519135 253.604996,196.037704 255.607758,187.251617 
M256.597778,196.458084 
	C259.312805,194.755722 259.312805,194.755722 256.427490,191.974380 
	C256.325073,193.585251 256.251801,194.737869 256.597778,196.458084 
z"/>
<path fill="#0A41C0" opacity="1.000000" stroke="none" 
	d="
M126.697243,212.283630 
	C127.505440,212.483475 128.265060,213.573654 128.725098,213.459244 
	C137.043839,211.390244 141.786072,218.324951 148.120193,221.141922 
	C152.761948,223.206253 157.201569,225.763412 161.591873,228.338577 
	C163.757523,229.608871 165.913910,231.155289 167.527664,233.043976 
	C169.840668,235.751022 171.724030,234.815887 174.196228,232.953644 
	C172.565613,242.333023 170.570297,251.848450 168.365601,261.680725 
	C166.999329,262.521729 165.842422,263.045868 164.694168,263.566071 
	C164.388107,263.399170 163.869354,263.261292 163.857712,263.089172 
	C163.131958,252.356628 153.472870,251.857452 146.699738,248.030609 
	C142.443390,245.625763 137.937225,243.485626 134.163773,240.454208 
	C130.496643,237.508148 126.510025,237.337448 121.971130,236.960510 
	C123.249756,228.749359 124.879486,220.681335 126.697243,212.283630 
z"/>
<path fill="#0B52D6" opacity="1.000000" stroke="none" 
	d="
M325.021667,311.545349 
	C325.166565,309.769714 325.632050,308.307068 325.633057,306.844086 
	C325.637299,300.766144 326.018188,300.516144 331.968414,300.999908 
	C341.994812,301.815063 349.906586,306.369293 357.119598,313.250397 
	C360.575226,316.546997 365.764435,317.966003 369.964630,320.564789 
	C372.580078,322.183014 374.818176,324.412598 377.214020,326.381927 
	C377.464355,326.587677 377.599365,327.070099 377.849152,327.120514 
	C387.551056,329.079102 394.533356,339.289642 405.971466,336.351776 
	C407.041992,336.076813 409.249176,338.011108 410.072021,339.419952 
	C412.201782,343.066498 414.559814,346.027985 419.609253,345.999268 
	C417.216980,352.137268 409.036285,354.578125 405.043488,349.425293 
	C401.535645,344.898285 397.312256,345.851379 393.294434,345.132233 
	C389.338623,344.424164 384.659149,345.842773 383.581787,339.914032 
	C383.513702,339.539368 382.514130,339.082977 381.951569,339.087830 
	C375.875183,339.140015 372.837402,334.407135 368.952515,330.984253 
	C368.006897,330.151062 366.959137,329.310699 365.807343,328.856842 
	C361.772980,327.267090 357.730621,324.914093 353.578888,324.655457 
	C350.298004,324.451050 346.827942,326.840393 343.495819,328.209137 
	C342.651001,328.556152 342.011810,329.403839 340.901306,330.088989 
	C335.392548,324.057098 330.260620,317.957642 325.021667,311.545349 
z"/>
<path fill="#0C53D8" opacity="1.000000" stroke="none" 
	d="
M974.995117,401.010986 
	C975.188965,401.897552 975.382874,402.784088 975.627808,403.903809 
	C981.795593,400.222260 987.502563,396.562927 993.474670,393.405060 
	C995.267517,392.457062 998.386902,391.980103 999.864502,392.917450 
	C1002.555298,394.624359 1002.157532,397.102753 999.491760,399.417450 
	C997.947327,400.758423 997.274841,403.103577 996.209900,404.996826 
	C998.245422,405.664703 1000.312256,406.952728 1002.309021,406.852112 
	C1005.157104,406.708557 1007.934570,405.458344 1010.777222,404.842407 
	C1014.455750,404.045410 1018.516113,401.748169 1020.798401,407.272156 
	C1021.131165,408.077667 1022.646973,408.991974 1023.501099,408.890778 
	C1030.832031,408.022583 1033.771606,413.111115 1036.840210,418.601379 
	C1036.271484,419.578430 1035.648315,420.388885 1034.836914,420.900635 
	C1018.830322,430.994720 982.953369,430.686279 973.211182,401.379639 
	C973.650146,401.003204 973.825073,401.001617 974.248779,401.002991 
	C974.497559,401.006012 974.995117,401.010986 974.995117,401.010986 
z"/>
<path fill="#0A41C0" opacity="1.000000" stroke="none" 
	d="
M232.875183,290.312927 
	C233.561035,295.491760 235.734573,298.404358 241.783264,296.151611 
	C242.643387,295.831268 244.005798,296.589935 245.042114,297.056946 
	C250.900375,299.696747 256.790192,302.278778 262.543030,305.134827 
	C265.241241,306.474426 266.937317,310.093842 270.823364,308.553253 
	C271.348572,310.090088 271.972290,311.602112 272.367828,313.171661 
	C272.685822,314.433289 272.727570,315.764557 273.264343,317.131836 
	C269.236542,323.191956 264.836334,329.185120 259.749420,335.176880 
	C255.223541,333.189911 251.375732,331.220642 247.554565,329.200989 
	C246.993835,328.904572 246.573410,328.351471 246.064774,327.946381 
	C241.638779,324.421326 237.338089,320.719116 232.732712,317.445892 
	C229.565643,315.195007 226.044067,313.577789 222.591370,317.480988 
	C222.094086,318.043152 220.534180,317.665344 219.206604,317.736420 
	C219.303482,316.017822 219.375381,314.742279 219.447281,313.466736 
	C219.447281,313.466736 219.758682,313.652527 219.975616,313.628601 
	C220.901611,312.569519 221.610672,311.534332 222.319733,310.499146 
	C222.319733,310.499146 222.446259,310.355774 222.660706,310.444763 
	C223.010239,310.550873 223.145294,310.567963 223.280350,310.585022 
	C223.137741,310.383057 222.995148,310.181091 222.852554,309.979095 
	C226.119888,303.523438 229.387238,297.067780 232.875183,290.312927 
z"/>
<path fill="#1582FD" opacity="1.000000" stroke="none" 
	d="
M1138.260132,352.494995 
	C1133.361450,351.168152 1128.323608,349.682770 1123.501953,347.677460 
	C1119.201782,345.889038 1115.018799,342.920593 1112.996338,350.195801 
	C1112.885376,350.594666 1111.869751,350.741943 1110.871948,351.043671 
	C1107.568481,337.789337 1104.668335,324.497681 1101.546265,310.188538 
	C1109.685181,310.188538 1117.072510,310.186646 1124.459839,310.189087 
	C1132.000122,310.191559 1131.915527,310.207245 1133.133911,317.654053 
	C1134.315796,324.878845 1135.816528,332.052429 1136.943237,339.284973 
	C1137.603394,343.523254 1137.806396,347.832794 1138.260132,352.494995 
z"/>
<path fill="#0838B6" opacity="1.000000" stroke="none" 
	d="
M219.164612,313.629211 
	C219.375381,314.742279 219.303482,316.017822 219.206604,317.736420 
	C220.534180,317.665344 222.094086,318.043152 222.591370,317.480988 
	C226.044067,313.577789 229.565643,315.195007 232.732712,317.445892 
	C237.338089,320.719116 241.638779,324.421326 246.064774,327.946381 
	C246.573410,328.351471 246.993835,328.904572 247.554565,329.200989 
	C251.375732,331.220642 255.223541,333.189911 259.469482,335.316071 
	C251.449554,344.901672 241.227524,351.827240 229.356689,356.965607 
	C229.577759,354.427185 230.155243,351.868835 230.744904,349.313324 
	C232.131119,343.305420 230.427353,341.058960 224.336182,341.007874 
	C219.291000,340.965576 216.134857,338.546387 212.936920,334.532501 
	C209.570236,330.306793 204.449448,327.478638 199.953796,323.685791 
	C206.168961,320.151672 212.525452,316.971680 219.164612,313.629211 
z"/>
<path fill="#116BF3" opacity="1.000000" stroke="none" 
	d="
M860.811523,266.350586 
	C864.169312,265.180054 867.357849,264.364990 870.546448,263.549927 
	C870.469177,263.093506 870.391846,262.637115 870.314575,262.180695 
	C870.640137,262.210693 871.197449,262.142303 871.257935,262.284851 
	C873.971375,268.675629 879.434998,268.177826 884.970154,268.118988 
	C887.142273,268.095917 890.244080,268.715027 891.328369,270.203186 
	C894.067261,273.962189 897.756836,273.332825 901.412354,274.216095 
	C906.395081,275.419983 911.010925,278.142334 915.835022,280.235748 
	C914.744202,282.606537 913.879333,284.486176 912.550720,286.837891 
	C905.666809,287.345306 899.229797,287.674530 892.832642,287.307892 
	C888.868347,287.080627 887.066162,288.458496 886.376343,292.061890 
	C881.561646,291.309540 877.119812,290.662018 872.660583,290.173615 
	C871.971252,290.098114 871.174377,290.702698 870.479919,291.087830 
	C870.060364,291.320465 869.781067,291.796021 869.372803,292.060669 
	C865.713989,294.432068 862.040588,296.780884 858.321960,299.168060 
	C857.293335,297.859222 856.518066,296.872742 855.742798,295.886292 
	C857.375977,286.159546 859.009094,276.432770 860.811523,266.350586 
z"/>
<path fill="#0B49CA" opacity="1.000000" stroke="none" 
	d="
M869.781860,386.012604 
	C867.796936,397.777374 865.892639,409.557159 863.710266,421.285217 
	C863.475830,422.545258 861.650452,424.425018 860.518372,424.457428 
	C851.423828,424.717590 842.318481,424.603027 832.472412,424.603027 
	C834.218567,415.063263 835.903625,405.857422 838.044312,396.516785 
	C839.824890,400.139923 841.157776,398.355682 842.754150,396.497589 
	C849.879700,388.204132 858.898315,384.676086 869.781860,386.012604 
z"/>
<path fill="#0C53D8" opacity="1.000000" stroke="none" 
	d="
M1137.089355,450.074890 
	C1129.794922,460.996765 1119.429810,467.036957 1106.518311,468.125488 
	C1098.659424,468.788025 1090.699097,468.247650 1082.105713,468.247650 
	C1083.776245,459.338501 1085.230957,451.580200 1086.770996,443.366516 
	C1096.925293,443.769012 1107.410767,446.098541 1115.736206,437.740112 
	C1117.197632,445.158875 1118.814575,446.842468 1125.896240,448.134735 
	C1129.621338,448.814514 1133.357910,449.430237 1137.089355,450.074890 
z"/>
<path fill="#1064E9" opacity="1.000000" stroke="none" 
	d="
M855.532837,296.209656 
	C856.518066,296.872742 857.293335,297.859222 858.321960,299.168060 
	C862.040588,296.780884 865.713989,294.432068 869.372803,292.060669 
	C869.781067,291.796021 870.060364,291.320465 870.479919,291.087830 
	C871.174377,290.702698 871.971252,290.098114 872.660583,290.173615 
	C877.119812,290.662018 881.561646,291.309540 886.398682,292.294250 
	C886.788147,292.683594 886.551514,293.086212 886.117432,293.081879 
	C884.090332,293.395111 882.346252,293.411377 880.946045,294.113434 
	C879.493103,294.841919 877.511658,296.107239 877.325500,297.368622 
	C877.092651,298.946442 878.014648,301.273041 879.248596,302.331726 
	C880.568359,303.464020 882.831421,303.496826 884.721313,304.403839 
	C882.774536,315.536102 880.789124,326.274078 878.803711,337.012024 
	C878.104309,336.161987 876.754395,335.269226 876.806946,334.468597 
	C877.291382,327.092896 876.985962,326.787079 870.110229,329.990814 
	C867.023926,331.428894 864.680603,331.171722 862.093994,328.720001 
	C857.849731,324.697113 855.580811,325.487732 853.820435,331.273529 
	C853.085571,333.688995 852.673462,336.202637 851.876892,339.722046 
	C850.600525,337.963837 849.998840,337.135040 849.111328,336.108154 
	C850.991211,322.784363 853.156982,309.658722 855.532837,296.209656 
z"/>
<path fill="#117DFB" opacity="1.000000" stroke="none" 
	d="
M1179.313599,375.785583 
	C1178.231689,375.893768 1176.928833,376.079193 1176.668091,375.642395 
	C1172.818359,369.196198 1165.842163,368.130951 1159.746948,365.519531 
	C1159.153442,365.265289 1158.927856,364.152313 1158.256348,363.213562 
	C1163.505615,352.160553 1169.030029,341.331879 1175.034180,330.450806 
	C1175.514160,331.347107 1175.514160,332.295776 1175.514160,332.501831 
	C1180.625488,334.711243 1185.583252,336.837738 1190.526245,338.997864 
	C1192.902710,340.036438 1195.251587,341.138489 1197.612915,342.211731 
	C1191.601074,353.332275 1185.589233,364.452850 1179.313599,375.785583 
z"/>
<path fill="#0950D5" opacity="1.000000" stroke="none" 
	d="
M869.916016,385.630432 
	C858.898315,384.676086 849.879700,388.204132 842.754150,396.497589 
	C841.157776,398.355682 839.824890,400.139923 838.240295,396.184631 
	C840.208435,383.223816 842.436279,370.460297 844.841919,357.349274 
	C846.770325,359.726410 848.804016,358.850800 850.886047,357.469940 
	C856.124756,353.995361 864.604553,355.475189 867.960815,360.624329 
	C868.701599,361.760803 868.362427,363.605347 869.110840,364.731628 
	C869.842407,365.832520 871.328064,366.432312 872.823853,367.148193 
	C872.126709,373.112274 871.088440,379.180267 869.916016,385.630432 
z"/>
<path fill="#1064E9" opacity="1.000000" stroke="none" 
	d="
M1072.820801,415.635315 
	C1071.191162,414.507904 1069.031616,413.250641 1068.358521,411.440643 
	C1066.256104,405.787445 1061.980591,403.095795 1056.737549,400.968323 
	C1052.066040,399.072754 1047.675415,396.485596 1043.119385,393.584106 
	C1045.044067,390.097412 1047.645142,387.470886 1048.842285,384.312256 
	C1051.231934,378.006836 1052.851440,371.409546 1055.093262,365.113831 
	C1058.134155,366.977386 1061.055176,368.426025 1063.560425,370.402100 
	C1066.650024,372.839264 1069.265747,375.874054 1072.333740,378.343170 
	C1074.221680,379.862610 1076.571899,380.807587 1078.714600,382.010498 
	C1076.800049,393.091187 1074.885498,404.171875 1072.820801,415.635315 
z"/>
<path fill="#0F5CE1" opacity="1.000000" stroke="none" 
	d="
M975.146240,400.702454 
	C974.995117,401.010986 974.497559,401.006012 974.215149,400.697205 
	C973.349487,399.926605 972.766235,399.464844 972.182983,399.003052 
	C967.639771,385.792603 969.210693,372.588257 972.248840,359.393036 
	C972.619019,357.785309 973.156250,356.216095 974.148071,354.461304 
	C980.329651,356.729218 985.457947,360.527740 992.447815,357.262543 
	C995.369446,355.897797 996.750549,359.183899 995.423767,361.998383 
	C993.401672,366.288025 994.318909,369.200378 998.737061,371.477081 
	C998.790771,375.954163 998.800903,379.971710 998.517578,384.047089 
	C998.562134,384.709351 998.900146,385.313782 999.452881,386.179504 
	C1000.135986,387.953979 1000.604370,389.467133 1001.072754,390.980255 
	C996.406372,388.736542 991.607544,387.226074 987.762146,382.974670 
	C985.276489,380.226624 980.104309,379.908569 976.136047,378.501556 
	C975.689270,378.863831 975.242432,379.226074 974.795654,379.588318 
	C975.347351,381.984253 975.354370,384.704376 976.551636,386.716064 
	C980.323730,393.053680 980.365906,394.494537 975.146240,400.702454 
z"/>
<path fill="#138AFD" opacity="1.000000" stroke="none" 
	d="
M1197.838623,341.996094 
	C1195.251587,341.138489 1192.902710,340.036438 1190.526245,338.997864 
	C1185.583252,336.837738 1180.625488,334.711243 1175.514160,332.501831 
	C1175.514160,332.295776 1175.514160,331.347107 1175.278320,330.208679 
	C1178.036255,324.121124 1180.937622,318.172882 1184.108276,312.371796 
	C1184.681641,311.322662 1186.347290,310.272522 1187.529053,310.249054 
	C1196.431763,310.072479 1205.339600,310.152710 1215.288086,310.152710 
	C1209.225708,321.284912 1203.645020,331.532654 1197.838623,341.996094 
z"/>
<path fill="#1576F9" opacity="1.000000" stroke="none" 
	d="
M308.205933,188.692474 
	C304.521149,184.867249 301.654846,180.577728 296.043365,178.136322 
	C289.359711,175.228439 283.437836,170.373657 277.576691,165.855453 
	C274.713409,163.648224 273.007629,163.786499 271.963135,165.528671 
	C269.400818,164.192490 267.213654,163.158218 265.146881,161.922501 
	C264.304657,161.418945 263.723755,160.478226 263.011963,159.326767 
	C264.305084,158.321228 265.606476,157.216614 266.916046,157.206772 
	C282.799438,157.087402 298.684021,157.129349 315.421204,157.129349 
	C313.002380,167.891510 310.700928,178.131500 308.205933,188.692474 
z"/>
<path fill="#1066EC" opacity="1.000000" stroke="none" 
	d="
M944.095093,313.005829 
	C944.517212,312.997925 944.939270,312.990051 945.686890,313.353699 
	C948.080444,315.347412 950.065125,317.092102 952.233032,318.567474 
	C957.535522,322.176117 965.393799,322.922058 966.292664,331.484314 
	C966.358337,332.109619 968.639343,332.502380 969.890320,333.003235 
	C966.941833,341.390228 961.255981,347.687195 954.213257,353.269226 
	C951.834900,352.038605 949.508972,350.957977 947.696594,349.311920 
	C944.562683,346.465576 941.562439,343.421478 938.866150,340.162476 
	C937.183411,338.128601 936.161011,335.548401 934.938782,332.529602 
	C940.494446,326.738892 943.342285,320.376068 944.095093,313.005829 
z"/>
<path fill="#0F5CE1" opacity="1.000000" stroke="none" 
	d="
M1137.066895,450.062469 
	C1133.357910,449.430237 1129.621338,448.814514 1125.896240,448.134735 
	C1118.814575,446.842468 1117.197632,445.158875 1116.024902,437.577972 
	C1117.996460,433.920502 1119.843262,430.571686 1121.938110,427.385925 
	C1124.349365,423.719147 1125.106812,419.886993 1123.868896,415.352234 
	C1124.591797,415.764618 1125.814941,416.445007 1125.895630,417.241150 
	C1126.375366,421.977356 1129.222534,421.367950 1132.319702,420.300049 
	C1134.951416,419.392700 1137.558472,417.671356 1140.171875,417.679901 
	C1142.403564,417.687256 1144.999023,419.234711 1146.761230,420.839386 
	C1148.861328,422.751740 1147.801025,424.976746 1145.849854,426.788177 
	C1145.157715,427.430756 1144.608276,428.410736 1144.386108,429.331421 
	C1144.076904,430.611877 1144.137085,431.981537 1144.039185,433.313049 
	C1145.167480,432.901642 1146.295898,432.490234 1147.756592,432.034210 
	C1145.073242,437.231903 1142.057373,442.474243 1138.450317,448.003662 
	C1137.592773,448.893005 1137.326416,449.495270 1137.060059,450.097534 
	C1137.060059,450.097534 1137.044556,450.050049 1137.066895,450.062469 
z"/>
<path fill="#116BF3" opacity="1.000000" stroke="none" 
	d="
M1004.555908,314.007568 
	C1009.993896,317.858673 1015.044128,321.828156 1020.227966,325.614716 
	C1021.329834,326.419525 1023.028687,326.360107 1024.259033,327.045959 
	C1026.555664,328.326202 1028.710205,329.861084 1030.591553,331.771912 
	C1020.935974,333.224152 1013.568970,337.640289 1007.501221,344.927887 
	C1005.971008,343.290588 1004.796875,341.697296 1003.470520,339.897583 
	C1001.942871,340.893921 1000.469727,341.854706 999.076599,342.763275 
	C996.692993,341.295959 994.122620,340.262817 992.313965,338.463898 
	C989.952026,336.114746 985.030579,335.712067 985.890198,330.694458 
	C991.998779,325.149872 998.107300,319.605255 1004.555908,314.007568 
z"/>
<path fill="#116BF3" opacity="1.000000" stroke="none" 
	d="
M1078.853027,381.621704 
	C1076.571899,380.807587 1074.221680,379.862610 1072.333740,378.343170 
	C1069.265747,375.874054 1066.650024,372.839264 1063.560425,370.402100 
	C1061.055176,368.426025 1058.134155,366.977386 1055.078491,364.650879 
	C1054.649658,359.053986 1054.539795,354.101044 1054.429932,349.148132 
	C1056.433594,348.540253 1058.560669,348.183563 1060.415649,347.272827 
	C1064.438477,345.297791 1072.137817,346.441528 1075.777710,349.083954 
	C1077.888184,350.615967 1080.790039,351.057861 1083.750854,351.992004 
	C1082.441162,361.740112 1080.716309,371.486481 1078.853027,381.621704 
z"/>
<path fill="#0F5CE1" opacity="1.000000" stroke="none" 
	d="
M184.850067,184.645218 
	C183.321564,183.717972 181.368927,182.674576 180.662918,181.079422 
	C177.051010,172.918854 169.354614,170.785248 162.088364,167.988159 
	C154.474182,165.057114 146.820557,162.228577 139.020660,159.000641 
	C140.532715,158.129807 142.204910,157.178802 143.884369,157.165863 
	C157.681198,157.059509 171.480103,157.209244 185.276733,157.091278 
	C189.236740,157.057404 190.814835,158.278580 189.837921,162.388840 
	C188.110519,169.656738 186.601395,176.976517 184.850067,184.645218 
z"/>
<path fill="#1576F9" opacity="1.000000" stroke="none" 
	d="
M476.542358,136.521515 
	C476.088684,137.481506 475.195282,138.299423 473.078094,140.237686 
	C477.139374,140.552139 480.023712,140.921173 482.913483,140.970108 
	C489.799713,141.086670 490.777496,142.289429 489.010956,149.273270 
	C455.036072,141.554016 421.813385,147.755005 388.671936,155.521210 
	C388.589569,155.098297 388.507202,154.675385 388.424835,154.252457 
	C394.576904,152.206741 400.641022,149.824982 406.899750,148.186813 
	C419.106445,144.991791 431.316406,141.605820 443.724731,139.446533 
	C454.372833,137.593521 465.299286,137.340179 476.542358,136.521515 
z"/>
<path fill="#1066EC" opacity="1.000000" stroke="none" 
	d="
M985.601746,330.887939 
	C985.030579,335.712067 989.952026,336.114746 992.313965,338.463898 
	C994.122620,340.262817 996.692993,341.295959 999.076599,342.763275 
	C1000.469727,341.854706 1001.942871,340.893921 1003.470520,339.897583 
	C1004.796875,341.697296 1005.971008,343.290588 1007.418579,345.238464 
	C1006.832275,346.816284 1005.972595,348.039520 1005.044312,348.903137 
	C1004.250488,348.144104 1003.525391,347.744690 1002.800232,347.345276 
	C1002.910339,348.661591 1003.020447,349.977936 1003.185425,351.689697 
	C1001.724731,358.395935 1000.209106,364.706726 998.693542,371.017517 
	C994.318909,369.200378 993.401672,366.288025 995.423767,361.998383 
	C996.750549,359.183899 995.369446,355.897797 992.447815,357.262543 
	C985.457947,360.527740 980.329651,356.729218 974.345337,354.149445 
	C977.778137,346.364044 981.545715,338.722748 985.601746,330.887939 
z"/>
<path fill="#106FF3" opacity="1.000000" stroke="none" 
	d="
M970.134644,332.730042 
	C968.639343,332.502380 966.358337,332.109619 966.292664,331.484314 
	C965.393799,322.922058 957.535522,322.176117 952.233032,318.567474 
	C950.065125,317.092102 948.080444,315.347412 946.003540,313.353088 
	C948.116943,309.329468 949.990540,305.502167 952.419128,302.067200 
	C956.190796,296.732330 959.730408,296.750885 964.748840,301.130035 
	C967.088013,303.171173 970.014282,304.539429 973.417542,306.680054 
	C973.417542,309.097229 973.417542,312.776306 973.696472,316.722382 
	C972.776611,322.145203 971.577820,327.300995 970.134644,332.730042 
z"/>
<path fill="#0C133D" opacity="1.000000" stroke="none" 
	d="
M147.835449,456.815125 
	C151.872177,457.066010 156.166397,457.914062 160.465363,457.938660 
	C183.746490,458.071930 207.028793,457.992920 230.310623,458.027740 
	C231.418854,458.029419 232.526505,458.417328 233.820862,458.943787 
	C231.199905,459.403076 228.392624,459.663116 225.585098,459.665802 
	C204.292603,459.686127 182.998108,459.803894 161.709091,459.523621 
	C157.160950,459.463776 152.632599,457.902069 147.835449,456.815125 
z"/>
<path fill="#0C53D8" opacity="1.000000" stroke="none" 
	d="
M364.460571,452.225800 
	C366.248260,447.768066 369.276276,444.440125 374.318420,442.915375 
	C376.685455,442.199585 378.665924,440.195221 380.810730,438.758575 
	C382.151031,437.860840 383.430939,436.866608 384.808594,436.032349 
	C387.736542,434.259216 390.645599,432.435394 393.687469,430.876465 
	C395.902283,429.741486 398.317474,428.997528 401.078186,428.120087 
	C389.289154,436.178314 377.065277,444.195709 364.460571,452.225800 
z"/>
<path fill="#0C53D8" opacity="1.000000" stroke="none" 
	d="
M345.369995,463.151184 
	C345.562378,460.993530 346.013031,458.747681 346.693542,456.573853 
	C348.091583,452.107971 349.612640,447.680634 351.185089,442.929077 
	C353.561279,447.340149 355.780823,451.460510 358.052856,455.955688 
	C353.980988,458.585510 349.856659,460.840546 345.369995,463.151184 
z"/>
<path fill="#0C53D8" opacity="1.000000" stroke="none" 
	d="
M363.630249,422.984131 
	C365.443237,432.180145 365.203094,432.744965 357.947693,435.883881 
	C357.274597,433.715271 356.618927,431.602814 355.933014,429.086365 
	C358.369171,426.814789 360.835571,424.947266 363.630249,422.984131 
z"/>
<path fill="#0C133D" opacity="1.000000" stroke="none" 
	d="
M239.338654,459.110962 
	C239.768158,458.355347 240.455887,457.250153 241.317261,457.092255 
	C248.638596,455.750214 255.988663,454.562531 263.339386,453.386658 
	C264.082642,453.267731 264.887115,453.531647 265.879028,453.920105 
	C257.289032,455.881714 248.483200,457.541077 239.338654,459.110962 
z"/>
<path fill="#0D57DC" opacity="1.000000" stroke="none" 
	d="
M98.978256,466.258698 
	C98.143555,467.196960 97.170959,468.220795 96.007195,468.533752 
	C94.100800,469.046448 92.070107,469.096954 90.091827,469.342346 
	C90.018028,467.507385 89.926483,465.672913 89.879906,463.837250 
	C89.863235,463.180359 89.955215,462.520721 89.999039,461.456055 
	C92.918480,462.708191 95.836494,464.366577 98.978256,466.258698 
z"/>
<path fill="#0D57DC" opacity="1.000000" stroke="none" 
	d="
M65.848907,478.937012 
	C68.181831,478.485748 71.016609,477.471405 73.099182,478.314667 
	C75.851875,479.429321 76.786942,482.346710 75.096893,485.757111 
	C71.969353,483.802704 68.992668,481.501678 65.848907,478.937012 
z"/>
<path fill="#0C133D" opacity="1.000000" stroke="none" 
	d="
M271.367126,452.963440 
	C272.906128,452.181000 274.812317,451.428558 276.910889,450.961060 
	C275.313629,451.828522 273.523987,452.411011 271.367126,452.963440 
z"/>
<path fill="#1582FD" opacity="1.000000" stroke="none" 
	d="
M1140.160889,359.587311 
	C1139.129150,359.294800 1138.147461,358.591949 1137.165894,357.889099 
	C1137.738647,357.261383 1138.311401,356.633698 1139.221313,355.986328 
	C1139.776123,357.036774 1139.993652,358.106842 1140.160889,359.587311 
z"/>
<path fill="#0C133D" opacity="1.000000" stroke="none" 
	d="
M278.361633,451.039490 
	C279.899506,450.223663 281.800842,449.430511 283.888123,448.908691 
	C282.291077,449.807404 280.508087,450.434784 278.361633,451.039490 
z"/>
<path fill="#0C133D" opacity="1.000000" stroke="none" 
	d="
M267.327301,454.037537 
	C267.896576,453.534637 268.793152,453.070679 269.877625,452.882324 
	C269.261902,453.464111 268.458252,453.770294 267.327301,454.037537 
z"/>
<path fill="#0838B6" opacity="1.000000" stroke="none" 
	d="
M222.085022,310.670898 
	C221.610672,311.534332 220.901611,312.569519 219.838409,313.510101 
	C220.272934,312.557892 221.061630,311.700287 222.085022,310.670898 
z"/>
<path fill="#0C133D" opacity="1.000000" stroke="none" 
	d="
M285.289185,448.957886 
	C285.589142,448.510986 286.178619,448.095947 286.921661,447.931122 
	C286.576385,448.450806 286.077545,448.720276 285.289185,448.957886 
z"/>
<path fill="#0C133D" opacity="1.000000" stroke="none" 
	d="
M288.288483,447.931396 
	C288.586273,447.491791 289.173004,447.079132 289.913208,446.913757 
	C289.570282,447.426788 289.073853,447.692596 288.288483,447.931396 
z"/>
<path fill="#0C133D" opacity="1.000000" stroke="none" 
	d="
M296.289917,444.951782 
	C296.577759,444.500427 297.155670,444.067627 297.891510,443.877747 
	C297.559631,444.403900 297.069824,444.687103 296.289917,444.951782 
z"/>
<path fill="#0D57DC" opacity="1.000000" stroke="none" 
	d="
M248.704803,218.162018 
	C248.889557,218.605911 248.876877,219.249466 248.591614,219.944824 
	C248.381821,219.451630 248.444611,218.906662 248.704803,218.162018 
z"/>
<path fill="#0D5ADF" opacity="1.000000" stroke="none" 
	d="
M972.174316,399.281586 
	C972.766235,399.464844 973.349487,399.926605 973.966370,400.694214 
	C973.825073,401.001617 973.650146,401.003204 973.212769,401.008423 
	C972.688843,400.528046 972.427307,400.044067 972.174316,399.281586 
z"/>
<path fill="#0D57DC" opacity="1.000000" stroke="none" 
	d="
M247.808594,222.203079 
	C247.974014,222.623550 247.963821,223.253174 247.695282,223.940674 
	C247.502304,223.469788 247.567642,222.941010 247.808594,222.203079 
z"/>
<path fill="#0B49CA" opacity="1.000000" stroke="none" 
	d="
M132.749359,182.319702 
	C132.924866,182.900436 132.938553,183.811554 132.600677,184.767822 
	C132.361938,184.092026 132.474747,183.371048 132.749359,182.319702 
z"/>
<path fill="#0C53D8" opacity="1.000000" stroke="none" 
	d="
M1137.332275,449.930969 
	C1137.326416,449.495270 1137.592773,448.893005 1138.193481,448.193512 
	C1138.220093,448.652344 1137.912354,449.208374 1137.332275,449.930969 
z"/>
<path fill="#0D57DC" opacity="1.000000" stroke="none" 
	d="
M406.354187,320.393738 
	C405.994019,320.321625 405.535767,319.978729 405.043091,319.314453 
	C405.424500,319.369720 405.840332,319.746338 406.354187,320.393738 
z"/>
<path fill="#0C133D" opacity="1.000000" stroke="none" 
	d="
M291.508911,446.741730 
	C291.467590,446.484100 291.653961,446.229187 291.942322,446.191406 
	C292.044342,446.408569 291.736664,446.744476 291.508911,446.741730 
z"/>
<path fill="#0C133D" opacity="1.000000" stroke="none" 
	d="
M294.398071,445.658020 
	C294.351044,445.391754 294.570404,445.122162 294.909607,445.059570 
	C294.907776,445.395935 294.786133,445.525330 294.398071,445.658020 
z"/>
<path fill="#1064E9" opacity="1.000000" stroke="none" 
	d="
M302.743652,211.855286 
	C302.524994,211.767120 302.385803,211.494125 302.522766,211.244934 
	C302.798889,211.268738 302.823151,211.670441 302.743652,211.855286 
z"/>
<path fill="#0D57DC" opacity="1.000000" stroke="none" 
	d="
M246.974579,226.248550 
	C247.239227,226.213882 247.389069,226.405411 247.489090,226.620148 
	C247.507751,226.660233 247.326614,226.793365 247.057037,226.951538 
	C246.865082,226.840591 246.853806,226.661697 246.974579,226.248550 
z"/>
<path fill="#0C133D" opacity="1.000000" stroke="none" 
	d="
M147.043488,456.375854 
	C147.168228,456.251160 147.354691,456.193146 147.412659,456.304596 
	C147.284164,456.474030 147.105209,456.442505 147.043488,456.375854 
z"/>
<path fill="#1066EC" opacity="1.000000" stroke="none" 
	d="
M1116.952515,382.354889 
	C1117.233154,382.346649 1117.499146,382.686432 1117.769653,383.361389 
	C1117.495361,383.365387 1117.216675,383.034149 1116.952515,382.354889 
z"/>
<path fill="#0838B6" opacity="1.000000" stroke="none" 
	d="
M222.761551,310.013611 
	C222.995148,310.181091 223.137741,310.383057 223.280350,310.585022 
	C223.145294,310.567963 223.010239,310.550873 222.728912,310.377808 
	C222.582657,310.221832 222.670547,310.048126 222.761551,310.013611 
z"/>
<path fill="#0B52D6" opacity="1.000000" stroke="none" 
	d="
M424.297729,342.990204 
	C423.999969,342.821747 423.999969,342.644012 423.999115,342.199280 
	C424.331696,342.077454 424.665131,342.222626 425.093567,342.646179 
	C424.990906,342.943329 424.793213,342.962128 424.297729,342.990204 
z"/>
<path fill="#116BF3" opacity="1.000000" stroke="none" 
	d="
M1084.701172,349.877136 
	C1084.476440,349.794342 1084.340698,349.500000 1084.478027,349.206970 
	C1084.750977,349.208313 1084.790161,349.665619 1084.701172,349.877136 
z"/>
<path fill="#F9FBFE" opacity="1.000000" stroke="none" 
	d="
M291.295288,404.939484 
	C283.935669,404.715851 281.097656,402.444305 281.035309,397.094910 
	C280.967773,391.302002 285.278229,386.170807 290.962463,386.044373 
	C300.923615,385.822784 310.896118,385.880066 320.859009,386.072571 
	C325.596161,386.164093 328.388550,389.594177 328.186432,394.313110 
	C327.920685,400.517548 323.373260,404.812012 316.672668,404.901978 
	C308.368622,405.013489 300.062042,404.936523 291.295288,404.939484 
z"/>
<path fill="#0D57DC" opacity="1.000000" stroke="none" 
	d="
M82.170067,465.794800 
	C82.794182,467.480164 83.113884,468.924377 83.433586,470.368591 
	C82.511383,470.473541 81.079384,470.991058 80.765739,470.603485 
	C79.935478,469.577545 79.401802,468.189453 79.194695,466.875427 
	C79.148514,466.582428 80.927170,466.001862 82.170067,465.794800 
z"/>
<path fill="#F9FBFE" opacity="1.000000" stroke="none" 
	d="
M944.040771,312.619904 
	C943.342285,320.376068 940.494446,326.738892 934.864868,332.113953 
	C927.493469,337.796631 919.287415,339.866882 910.396729,339.818573 
	C901.259827,339.768951 892.120850,339.919464 882.986511,339.764709 
	C881.607849,339.741364 880.249329,338.534760 878.842590,337.443726 
	C880.789124,326.274078 882.774536,315.536102 884.865173,304.006592 
	C885.497437,299.838776 886.024475,296.462494 886.551514,293.086212 
	C886.551514,293.086212 886.788147,292.683594 886.765869,292.451233 
	C887.066162,288.458496 888.868347,287.080627 892.832642,287.307892 
	C899.229797,287.674530 905.666809,287.345306 912.547852,287.211090 
	C918.778931,287.742279 924.714417,287.723480 930.284180,289.141235 
	C940.984131,291.864807 946.375183,301.512634 944.040771,312.619904 
z"/>
<path fill="#FBFCFE" opacity="1.000000" stroke="none" 
	d="
M998.737061,371.477081 
	C1000.209106,364.706726 1001.724731,358.395935 1003.499268,351.629364 
	C1004.209839,350.536652 1004.661377,349.899719 1005.112976,349.262787 
	C1005.972595,348.039520 1006.832275,346.816284 1007.774536,345.282471 
	C1013.568970,337.640289 1020.935974,333.224152 1030.629639,332.131775 
	C1042.471436,332.262909 1050.866699,336.811432 1054.268433,348.853149 
	C1054.539795,354.101044 1054.649658,359.053986 1054.774414,364.469849 
	C1052.851440,371.409546 1051.231934,378.006836 1048.842285,384.312256 
	C1047.645142,387.470886 1045.044067,390.097412 1042.937866,393.256073 
	C1035.868408,399.393066 1028.157593,403.031464 1018.806763,402.099426 
	C1011.308289,401.352051 1005.125305,398.512543 1001.331299,391.190186 
	C1000.604370,389.467133 1000.135986,387.953979 999.461914,385.843994 
	C999.107788,384.827850 998.959412,384.408539 998.811035,383.989227 
	C998.800903,379.971710 998.790771,375.954163 998.737061,371.477081 
z"/>
<path fill="#1576F9" opacity="1.000000" stroke="none" 
	d="
M264.643402,170.886017 
	C263.608398,169.962280 262.951385,168.985443 262.294373,168.008606 
	C263.446289,167.852417 264.598236,167.696213 265.750153,167.540009 
	C265.507233,168.637650 265.264313,169.735291 264.643402,170.886017 
z"/>
<path fill="#116BF3" opacity="1.000000" stroke="none" 
	d="
M256.388153,196.174286 
	C256.251801,194.737869 256.325073,193.585251 256.427490,191.974380 
	C259.312805,194.755722 259.312805,194.755722 256.388153,196.174286 
z"/>
<path fill="#116BF3" opacity="1.000000" stroke="none" 
	d="
M886.117432,293.081879 
	C886.024475,296.462494 885.497437,299.838776 884.826538,303.612305 
	C882.831421,303.496826 880.568359,303.464020 879.248596,302.331726 
	C878.014648,301.273041 877.092651,298.946442 877.325500,297.368622 
	C877.511658,296.107239 879.493103,294.841919 880.946045,294.113434 
	C882.346252,293.411377 884.090332,293.395111 886.117432,293.081879 
z"/>
<path fill="#1066EC" opacity="1.000000" stroke="none" 
	d="
M998.517578,384.047089 
	C998.959412,384.408539 999.107788,384.827850 999.247131,385.582672 
	C998.900146,385.313782 998.562134,384.709351 998.517578,384.047089 
z"/>
<path fill="#116BF3" opacity="1.000000" stroke="none" 
	d="
M1005.044312,348.903137 
	C1004.661377,349.899719 1004.209839,350.536652 1003.444458,351.233917 
	C1003.020447,349.977936 1002.910339,348.661591 1002.800232,347.345276 
	C1003.525391,347.744690 1004.250488,348.144104 1005.044312,348.903137 
z"/>
</svg>